<svg width="79" height="75" viewBox="0 0 79 75" fill="none" xmlns="http://www.w3.org/2000/svg">
<rect x="23.1655" y="7.34943" width="19" height="50.6433" rx="9.5" transform="rotate(-22.3786 23.1655 7.34943)" fill="white"/>
<rect y="26.2338" width="19" height="35" rx="9.5" transform="rotate(-22.3786 0 26.2338)" fill="white"/>
<path d="M22.7637 65.9141C22.7988 65.8047 22.8691 65.7129 22.9746 65.6387C23.084 65.5645 23.1992 65.5273 23.3203 65.5273C23.4531 65.5273 23.5703 65.5684 23.6719 65.6504C23.7773 65.7324 23.8457 65.8281 23.877 65.9375L25.6758 71.668L27.2754 66.1543C27.3066 65.9902 27.375 65.8496 27.4805 65.7324C27.5898 65.6113 27.7109 65.5508 27.8438 65.5508C28.0117 65.5508 28.1504 65.6211 28.2598 65.7617C28.373 65.9023 28.4297 66.0684 28.4297 66.2598C28.4297 66.3379 28.4199 66.4062 28.4004 66.4648L26.2734 73.6895C26.2383 73.8066 26.168 73.9043 26.0625 73.9824C25.957 74.0566 25.8418 74.0938 25.7168 74.0938C25.5996 74.0938 25.4844 74.0586 25.3711 73.9883C25.2617 73.9141 25.1895 73.8203 25.1543 73.707L23.3027 68.3926L21.3457 73.8828C21.2832 73.9453 21.2051 73.9961 21.1113 74.0352C21.0215 74.0742 20.9141 74.0938 20.7891 74.0938C20.6641 74.0938 20.5469 74.0566 20.4375 73.9824C20.3281 73.9043 20.2559 73.8066 20.2207 73.6895L18.1699 66.541C18.1543 66.4785 18.1465 66.4102 18.1465 66.3359C18.1465 66.1445 18.2012 65.9785 18.3105 65.8379C18.4238 65.6973 18.5645 65.627 18.7324 65.627C18.8691 65.627 18.9902 65.6895 19.0957 65.8145C19.2051 65.9355 19.2734 66.0781 19.3008 66.2422L20.8418 71.7031L22.7637 65.9141ZM36.2578 65.498C36.8555 65.498 37.4043 65.6152 37.9043 65.8496C38.4082 66.0801 38.8457 66.3984 39.2168 66.8047C39.5879 67.207 39.875 67.6719 40.0781 68.1992C40.2812 68.7227 40.3828 69.2793 40.3828 69.8691C40.3828 70.459 40.2812 71.0137 40.0781 71.5332C39.8789 72.0488 39.5957 72.5039 39.2285 72.8984C38.8613 73.293 38.4258 73.6016 37.9219 73.8242C37.4219 74.0469 36.8691 74.1582 36.2637 74.1582C35.6465 74.1582 35.0859 74.0469 34.582 73.8242C34.0781 73.5977 33.6445 73.2871 33.2812 72.8926C32.9219 72.4941 32.6445 72.0352 32.4492 71.5156C32.2539 70.9922 32.1562 70.4316 32.1562 69.834C32.1562 69.252 32.2578 68.7012 32.4609 68.1816C32.668 67.6621 32.9551 67.2012 33.3223 66.7988C33.6934 66.3926 34.127 66.0742 34.623 65.8438C35.123 65.6133 35.668 65.498 36.2578 65.498ZM36.2812 66.6875C35.7031 66.6875 35.1914 66.8379 34.7461 67.1387C34.3047 67.4395 33.957 67.8379 33.7031 68.334C33.4531 68.8262 33.3281 69.3652 33.3281 69.9512C33.3281 70.3496 33.4043 70.7305 33.5566 71.0938C33.709 71.457 33.9199 71.7812 34.1895 72.0664C34.459 72.3477 34.7695 72.5703 35.1211 72.7344C35.4766 72.8945 35.8555 72.9746 36.2578 72.9746C36.6602 72.9746 37.0391 72.8906 37.3945 72.7227C37.7539 72.5547 38.0703 72.3281 38.3438 72.043C38.6211 71.7578 38.8379 71.4375 38.9941 71.082C39.1504 70.7227 39.2285 70.3555 39.2285 69.9805C39.2285 69.375 39.0957 68.8242 38.8301 68.3281C38.5684 67.8281 38.2148 67.4297 37.7695 67.1328C37.3242 66.8359 36.8281 66.6875 36.2812 66.6875ZM45.0059 74C44.8457 74 44.707 73.9434 44.5898 73.8301C44.4766 73.7129 44.4199 73.5742 44.4199 73.4141L44.4023 66.1426C44.3984 66.1074 44.3965 66.0723 44.3965 66.0371C44.3965 65.9824 44.4082 65.9297 44.4316 65.8789C44.459 65.8281 44.4902 65.7754 44.5254 65.7207C44.6191 65.5684 44.7539 65.4922 44.9297 65.4922C45.2109 65.4922 45.4043 65.6016 45.5098 65.8203L48.6445 70.9355L51.5449 65.8145C51.6621 65.6191 51.8203 65.5215 52.0195 65.5215C52.1875 65.5215 52.334 65.5762 52.459 65.6855C52.584 65.7949 52.6465 65.9355 52.6465 66.1074V73.4375C52.6465 73.5977 52.5879 73.7363 52.4707 73.8535C52.3574 73.9668 52.2207 74.0234 52.0605 74.0234C51.9004 74.0234 51.7617 73.9668 51.6445 73.8535C51.5312 73.7363 51.4746 73.5977 51.4746 73.4375V68.1992L49.1719 72.3828C49.1289 72.4531 49.0625 72.5215 48.9727 72.5879C48.8828 72.6504 48.7852 72.6816 48.6797 72.6816C48.4531 72.6816 48.2793 72.5879 48.1582 72.4004L45.5742 68.1758L45.5918 73.4082V73.4141C45.5918 73.5742 45.5332 73.7129 45.416 73.8301C45.3027 73.9434 45.166 74 45.0059 74Z" fill="white"/>
</svg>
