<svg width="546" height="65" viewBox="0 0 546 65" fill="none" xmlns="http://www.w3.org/2000/svg">
<g filter="url(#filter0_d_59_18)">
<path d="M21.984 34.48C19.68 34.48 17.7067 33.9787 16.064 32.976C14.4213 31.9627 13.1573 30.5547 12.272 28.752C11.3973 26.9493 10.96 24.8587 10.96 22.48C10.96 20.1013 11.3973 18.0107 12.272 16.208C13.1573 14.4053 14.4213 13.0027 16.064 12C17.7067 10.9867 19.68 10.48 21.984 10.48C24.64 10.48 26.8533 11.1467 28.624 12.48C30.3947 13.8027 31.6373 15.5893 32.352 17.84L28.464 18.912C28.016 17.408 27.2533 16.2347 26.176 15.392C25.0987 14.5387 23.7013 14.112 21.984 14.112C20.4373 14.112 19.1467 14.4587 18.112 15.152C17.088 15.8453 16.3147 16.8213 15.792 18.08C15.28 19.328 15.0187 20.7947 15.008 22.48C15.008 24.1653 15.264 25.6373 15.776 26.896C16.2987 28.144 17.0773 29.1147 18.112 29.808C19.1467 30.5013 20.4373 30.848 21.984 30.848C23.7013 30.848 25.0987 30.4213 26.176 29.568C27.2533 28.7147 28.016 27.5413 28.464 26.048L32.352 27.12C31.6373 29.3707 30.3947 31.1627 28.624 32.496C26.8533 33.8187 24.64 34.48 21.984 34.48ZM45.145 34.48C43.3103 34.48 41.6943 34.1067 40.297 33.36C38.9103 32.6133 37.8223 31.5627 37.033 30.208C36.2543 28.8533 35.865 27.264 35.865 25.44V10.992L39.769 10.96V25.344C39.769 26.208 39.913 26.9813 40.201 27.664C40.4997 28.3467 40.8997 28.928 41.401 29.408C41.9023 29.8773 42.4783 30.2347 43.129 30.48C43.7797 30.7253 44.4517 30.848 45.145 30.848C45.8597 30.848 46.537 30.7253 47.177 30.48C47.8277 30.224 48.4037 29.8613 48.905 29.392C49.4063 28.912 49.801 28.3307 50.089 27.648C50.377 26.9653 50.521 26.1973 50.521 25.344V10.96H54.425V25.44C54.425 27.264 54.0303 28.8533 53.241 30.208C52.4623 31.5627 51.3743 32.6133 49.977 33.36C48.5903 34.1067 46.9797 34.48 45.145 34.48ZM59.2163 34V10.96H63.0723V34H59.2163ZM67.865 34V10.96H75.209C75.401 10.96 75.7797 10.9653 76.345 10.976C76.921 10.9867 77.4757 11.024 78.009 11.088C79.833 11.3227 81.3743 11.9733 82.633 13.04C83.9023 14.096 84.8623 15.4453 85.513 17.088C86.1637 18.7307 86.489 20.528 86.489 22.48C86.489 24.432 86.1637 26.2293 85.513 27.872C84.8623 29.5147 83.9023 30.8693 82.633 31.936C81.3743 32.992 79.833 33.6373 78.009 33.872C77.4863 33.936 76.937 33.9733 76.361 33.984C75.785 33.9947 75.401 34 75.209 34H67.865ZM71.785 30.368H75.209C75.529 30.368 75.9343 30.3573 76.425 30.336C76.9263 30.3147 77.369 30.2667 77.753 30.192C78.841 29.9893 79.7263 29.504 80.409 28.736C81.0917 27.968 81.593 27.0347 81.913 25.936C82.2437 24.8373 82.409 23.6853 82.409 22.48C82.409 21.232 82.2437 20.0587 81.913 18.96C81.5823 17.8613 81.0703 16.9387 80.377 16.192C79.6943 15.4453 78.8197 14.9707 77.753 14.768C77.369 14.6827 76.9263 14.6347 76.425 14.624C75.9343 14.6027 75.529 14.592 75.209 14.592H71.785V30.368ZM88.0463 34L95.3103 10.96H100.958L108.222 34H104.254L97.6623 13.328H98.5263L92.0143 34H88.0463ZM92.0943 29.008V25.408H104.19V29.008H92.0943ZM111.115 34V10.96H118.459C118.651 10.96 119.03 10.9653 119.595 10.976C120.171 10.9867 120.726 11.024 121.259 11.088C123.083 11.3227 124.624 11.9733 125.883 13.04C127.152 14.096 128.112 15.4453 128.763 17.088C129.414 18.7307 129.739 20.528 129.739 22.48C129.739 24.432 129.414 26.2293 128.763 27.872C128.112 29.5147 127.152 30.8693 125.883 31.936C124.624 32.992 123.083 33.6373 121.259 33.872C120.736 33.936 120.187 33.9733 119.611 33.984C119.035 33.9947 118.651 34 118.459 34H111.115ZM115.035 30.368H118.459C118.779 30.368 119.184 30.3573 119.675 30.336C120.176 30.3147 120.619 30.2667 121.003 30.192C122.091 29.9893 122.976 29.504 123.659 28.736C124.342 27.968 124.843 27.0347 125.163 25.936C125.494 24.8373 125.659 23.6853 125.659 22.48C125.659 21.232 125.494 20.0587 125.163 18.96C124.832 17.8613 124.32 16.9387 123.627 16.192C122.944 15.4453 122.07 14.9707 121.003 14.768C120.619 14.6827 120.176 14.6347 119.675 14.624C119.184 14.6027 118.779 14.592 118.459 14.592H115.035V30.368ZM143.265 34.48C140.961 34.48 138.988 33.9787 137.345 32.976C135.703 31.9627 134.439 30.5547 133.553 28.752C132.679 26.9493 132.241 24.8587 132.241 22.48C132.241 20.1013 132.679 18.0107 133.553 16.208C134.439 14.4053 135.703 13.0027 137.345 12C138.988 10.9867 140.961 10.48 143.265 10.48C145.569 10.48 147.543 10.9867 149.185 12C150.839 13.0027 152.103 14.4053 152.977 16.208C153.863 18.0107 154.305 20.1013 154.305 22.48C154.305 24.8587 153.863 26.9493 152.977 28.752C152.103 30.5547 150.839 31.9627 149.185 32.976C147.543 33.9787 145.569 34.48 143.265 34.48ZM143.265 30.848C144.812 30.8587 146.097 30.5173 147.121 29.824C148.156 29.1307 148.929 28.1547 149.441 26.896C149.964 25.6373 150.225 24.1653 150.225 22.48C150.225 20.7947 149.964 19.3333 149.441 18.096C148.929 16.848 148.156 15.8773 147.121 15.184C146.097 14.4907 144.812 14.1333 143.265 14.112C141.719 14.1013 140.433 14.4427 139.409 15.136C138.385 15.8293 137.612 16.8053 137.089 18.064C136.577 19.3227 136.321 20.7947 136.321 22.48C136.321 24.1653 136.577 25.632 137.089 26.88C137.601 28.1173 138.369 29.0827 139.393 29.776C140.428 30.4693 141.719 30.8267 143.265 30.848ZM170.84 34.48C169.123 34.48 167.683 34.096 166.52 33.328C165.358 32.56 164.478 31.4933 163.88 30.128C163.283 28.752 162.968 27.1627 162.936 25.36C162.968 23.5147 163.283 21.9093 163.88 20.544C164.488 19.1787 165.374 18.1227 166.536 17.376C167.699 16.6187 169.134 16.24 170.84 16.24C172.44 16.24 173.864 16.624 175.112 17.392C176.371 18.1493 177.262 19.1947 177.784 20.528L176.504 21.072C176.024 19.9627 175.283 19.104 174.28 18.496C173.288 17.888 172.142 17.584 170.84 17.584C169.39 17.584 168.19 17.9147 167.24 18.576C166.291 19.2267 165.582 20.1387 165.112 21.312C164.643 22.4747 164.398 23.824 164.376 25.36C164.408 27.7067 164.963 29.5893 166.04 31.008C167.118 32.4267 168.718 33.136 170.84 33.136C172.11 33.136 173.235 32.8427 174.216 32.256C175.198 31.6693 175.95 30.8107 176.472 29.68L177.784 30.256C177.07 31.6427 176.126 32.6933 174.952 33.408C173.779 34.1227 172.408 34.48 170.84 34.48ZM187.622 34.48C185.915 34.48 184.475 34.0907 183.302 33.312C182.128 32.5333 181.238 31.456 180.63 30.08C180.022 28.704 179.718 27.12 179.718 25.328C179.718 23.5147 180.027 21.9253 180.646 20.56C181.264 19.1947 182.16 18.1333 183.334 17.376C184.518 16.6187 185.947 16.24 187.622 16.24C189.339 16.24 190.784 16.6293 191.958 17.408C193.131 18.176 194.016 19.2427 194.614 20.608C195.222 21.9733 195.526 23.5467 195.526 25.328C195.526 27.152 195.222 28.752 194.614 30.128C194.006 31.4933 193.11 32.56 191.926 33.328C190.752 34.096 189.318 34.48 187.622 34.48ZM187.622 33.136C189.798 33.136 191.419 32.416 192.486 30.976C193.552 29.5253 194.086 27.6427 194.086 25.328C194.086 22.9707 193.547 21.0933 192.47 19.696C191.403 18.288 189.787 17.584 187.622 17.584C186.16 17.584 184.95 17.9147 183.99 18.576C183.04 19.2373 182.331 20.1493 181.862 21.312C181.392 22.4747 181.158 23.8133 181.158 25.328C181.158 27.6747 181.702 29.5627 182.79 30.992C183.888 32.4213 185.499 33.136 187.622 33.136ZM219.565 34L219.597 22.096C219.597 20.656 219.175 19.5253 218.333 18.704C217.49 17.872 216.45 17.456 215.213 17.456C214.53 17.456 213.837 17.6107 213.133 17.92C212.439 18.2293 211.853 18.752 211.373 19.488C210.903 20.224 210.669 21.232 210.669 22.512H209.485C209.431 21.2427 209.65 20.1387 210.141 19.2C210.642 18.2613 211.341 17.536 212.237 17.024C213.133 16.5013 214.157 16.24 215.309 16.24C216.941 16.24 218.285 16.752 219.341 17.776C220.407 18.8 220.941 20.208 220.941 22L220.909 34H219.565ZM199.053 34V16.72H200.301V20.24H200.397V34H199.053ZM209.325 34L209.357 22.32C209.357 20.8267 208.941 19.6427 208.109 18.768C207.287 17.8933 206.221 17.456 204.909 17.456C203.565 17.456 202.477 17.9147 201.645 18.832C200.813 19.7493 200.397 20.976 200.397 22.512L199.213 22C199.213 20.8907 199.463 19.904 199.965 19.04C200.466 18.1653 201.154 17.4827 202.029 16.992C202.914 16.4907 203.927 16.24 205.069 16.24C206.039 16.24 206.951 16.448 207.805 16.864C208.658 17.2693 209.346 17.904 209.869 18.768C210.402 19.632 210.669 20.7413 210.669 22.096L210.637 34H209.325ZM237.537 13.84L236.001 9.52H237.409L238.945 13.84H237.537ZM236.545 34.48C235.201 34.48 234.087 34.2453 233.201 33.776C232.316 33.3067 231.655 32.688 231.217 31.92C230.78 31.152 230.561 30.32 230.561 29.424C230.561 28.4107 230.78 27.5733 231.217 26.912C231.665 26.24 232.247 25.712 232.961 25.328C233.676 24.944 234.444 24.6667 235.265 24.496C236.268 24.2933 237.34 24.1173 238.481 23.968C239.633 23.808 240.695 23.6747 241.665 23.568C242.636 23.4613 243.361 23.376 243.841 23.312L243.361 23.632C243.415 21.5947 243.041 20.08 242.241 19.088C241.452 18.0853 240.055 17.584 238.049 17.584C236.599 17.584 235.431 17.9093 234.545 18.56C233.671 19.2 233.057 20.1867 232.705 21.52L231.233 21.136C231.617 19.536 232.401 18.32 233.585 17.488C234.78 16.656 236.289 16.24 238.113 16.24C239.713 16.24 241.047 16.5653 242.113 17.216C243.18 17.8667 243.905 18.7467 244.289 19.856C244.439 20.2827 244.545 20.8 244.609 21.408C244.673 22.016 244.705 22.608 244.705 23.184V34H243.457V29.264L244.097 29.296C243.639 30.9387 242.727 32.2133 241.361 33.12C239.996 34.0267 238.391 34.48 236.545 34.48ZM236.481 33.136C237.729 33.136 238.828 32.912 239.777 32.464C240.737 32.016 241.511 31.3707 242.097 30.528C242.695 29.6747 243.073 28.656 243.233 27.472C243.319 26.8747 243.361 26.2347 243.361 25.552C243.361 24.8693 243.361 24.3787 243.361 24.08L244.065 24.624C243.5 24.6773 242.716 24.752 241.713 24.848C240.721 24.9333 239.671 25.0507 238.561 25.2C237.452 25.3387 236.449 25.52 235.553 25.744C235.031 25.872 234.492 26.0747 233.937 26.352C233.383 26.6293 232.913 27.0187 232.529 27.52C232.156 28.0213 231.969 28.6667 231.969 29.456C231.969 30.0107 232.108 30.5707 232.385 31.136C232.663 31.7013 233.127 32.176 233.777 32.56C234.439 32.944 235.34 33.136 236.481 33.136ZM255.169 34.448C253.217 34.448 251.596 34.0427 250.305 33.232C249.014 32.4107 248.214 31.28 247.905 29.84L249.281 29.584C249.569 30.6507 250.241 31.504 251.297 32.144C252.364 32.784 253.665 33.104 255.201 33.104C256.769 33.104 258.012 32.768 258.929 32.096C259.857 31.424 260.321 30.512 260.321 29.36C260.321 28.7307 260.182 28.2187 259.905 27.824C259.628 27.4187 259.084 27.0507 258.273 26.72C257.473 26.3893 256.289 26.0107 254.721 25.584C253.078 25.136 251.798 24.704 250.881 24.288C249.974 23.8613 249.334 23.3867 248.961 22.864C248.598 22.3307 248.417 21.68 248.417 20.912C248.417 19.9947 248.689 19.184 249.233 18.48C249.777 17.776 250.529 17.2267 251.489 16.832C252.449 16.4373 253.558 16.24 254.817 16.24C256.086 16.24 257.228 16.4533 258.241 16.88C259.265 17.296 260.086 17.8827 260.705 18.64C261.334 19.3867 261.697 20.2507 261.793 21.232L260.417 21.488C260.214 20.2827 259.596 19.3333 258.561 18.64C257.537 17.936 256.257 17.584 254.721 17.584C253.281 17.5627 252.102 17.856 251.185 18.464C250.278 19.072 249.825 19.8667 249.825 20.848C249.825 21.392 249.98 21.8613 250.289 22.256C250.598 22.64 251.137 22.992 251.905 23.312C252.673 23.632 253.74 23.9627 255.105 24.304C256.833 24.7413 258.177 25.184 259.137 25.632C260.108 26.08 260.785 26.6027 261.169 27.2C261.564 27.7973 261.761 28.5387 261.761 29.424C261.761 30.992 261.174 32.224 260.001 33.12C258.828 34.0053 257.217 34.448 255.169 34.448Z" fill="white"/>
<path d="M271.709 34V10.96H285.581V14.816H275.565V20.56H283.661V24.4H275.565V34H271.709ZM286.546 34L293.81 10.96H299.458L306.722 34H302.754L296.162 13.328H297.026L290.514 34H286.546ZM290.594 29.008V25.408H302.69V29.008H290.594ZM309.615 34V10.96H313.471V21.648L322.671 10.96H327.407L317.503 22.256L328.079 34H323.183L313.471 23.248V34H309.615ZM330.334 34V10.96H345.214V14.576H334.19V20.256H343.294V23.872H334.19V30.384H345.214V34H330.334ZM355.459 34V10.96H359.363L370.051 27.2V10.96H373.955V34H370.051L359.363 17.76V34H355.459ZM378.428 34V10.96H393.308V14.576H382.284V20.256H391.388V23.872H382.284V30.384H393.308V34H378.428ZM402.01 34L395.274 10.96H399.322L403.914 27.6L408.49 10.992L412.538 10.96L417.13 27.6L421.706 10.96H425.754L419.034 34H415.226L410.506 17.616L405.818 34H402.01ZM436.268 34.48C434.583 34.48 433.063 34.1867 431.708 33.6C430.364 33.0133 429.255 32.176 428.38 31.088C427.516 29.9893 426.967 28.688 426.732 27.184L430.732 26.576C431.073 27.9413 431.772 28.9973 432.828 29.744C433.895 30.4907 435.121 30.864 436.508 30.864C437.329 30.864 438.103 30.736 438.828 30.48C439.553 30.224 440.14 29.8507 440.588 29.36C441.047 28.8693 441.276 28.2667 441.276 27.552C441.276 27.232 441.223 26.9387 441.116 26.672C441.009 26.3947 440.849 26.1493 440.636 25.936C440.433 25.7227 440.167 25.5307 439.836 25.36C439.516 25.1787 439.143 25.024 438.716 24.896L432.764 23.136C432.252 22.9867 431.697 22.7893 431.1 22.544C430.513 22.288 429.953 21.9413 429.42 21.504C428.897 21.056 428.465 20.4907 428.124 19.808C427.793 19.1147 427.628 18.2613 427.628 17.248C427.628 15.7653 428.001 14.5227 428.748 13.52C429.505 12.5067 430.519 11.7493 431.788 11.248C433.068 10.7467 434.487 10.5013 436.044 10.512C437.623 10.5227 439.031 10.7947 440.268 11.328C441.505 11.8507 442.54 12.6133 443.372 13.616C444.204 14.6187 444.791 15.8293 445.132 17.248L440.988 17.968C440.817 17.1573 440.487 16.4693 439.996 15.904C439.516 15.328 438.924 14.8907 438.22 14.592C437.527 14.2933 436.785 14.1333 435.996 14.112C435.228 14.1013 434.513 14.2187 433.852 14.464C433.201 14.6987 432.673 15.04 432.268 15.488C431.873 15.936 431.676 16.4587 431.676 17.056C431.676 17.6213 431.847 18.0853 432.188 18.448C432.529 18.8 432.951 19.0827 433.452 19.296C433.964 19.4987 434.481 19.6693 435.004 19.808L439.132 20.96C439.697 21.1093 440.332 21.312 441.036 21.568C441.74 21.824 442.417 22.1813 443.068 22.64C443.719 23.0987 444.252 23.7013 444.668 24.448C445.095 25.1947 445.308 26.144 445.308 27.296C445.308 28.4907 445.057 29.5413 444.556 30.448C444.065 31.344 443.399 32.0907 442.556 32.688C441.713 33.2853 440.748 33.7333 439.66 34.032C438.583 34.3307 437.452 34.48 436.268 34.48Z" fill="#F93131"/>
</g>
<g filter="url(#filter1_d_59_18)">
<path d="M129.24 47L131.964 38.36H134.082L136.806 47H135.318L132.846 39.248H133.17L130.728 47H129.24ZM130.758 45.128V43.778H135.294V45.128H130.758ZM143.239 47.18C142.583 47.18 142.007 47.038 141.511 46.754C141.015 46.47 140.627 46.076 140.347 45.572C140.071 45.068 139.933 44.488 139.933 43.832C139.933 43.124 140.069 42.51 140.341 41.99C140.613 41.466 140.991 41.06 141.475 40.772C141.959 40.484 142.519 40.34 143.155 40.34C143.827 40.34 144.397 40.498 144.865 40.814C145.337 41.126 145.687 41.568 145.915 42.14C146.143 42.712 146.229 43.386 146.173 44.162H144.739V43.634C144.735 42.93 144.611 42.416 144.367 42.092C144.123 41.768 143.739 41.606 143.215 41.606C142.623 41.606 142.183 41.79 141.895 42.158C141.607 42.522 141.463 43.056 141.463 43.76C141.463 44.416 141.607 44.924 141.895 45.284C142.183 45.644 142.603 45.824 143.155 45.824C143.511 45.824 143.817 45.746 144.073 45.59C144.333 45.43 144.533 45.2 144.673 44.9L146.101 45.332C145.853 45.916 145.469 46.37 144.949 46.694C144.433 47.018 143.863 47.18 143.239 47.18ZM141.007 44.162V43.07H145.465V44.162H141.007ZM150.11 47.18C149.514 47.18 148.994 47.03 148.55 46.73C148.106 46.43 147.762 46.022 147.518 45.506C147.274 44.99 147.152 44.408 147.152 43.76C147.152 43.104 147.274 42.52 147.518 42.008C147.766 41.492 148.116 41.086 148.568 40.79C149.02 40.49 149.552 40.34 150.164 40.34C150.78 40.34 151.296 40.49 151.712 40.79C152.132 41.086 152.45 41.492 152.666 42.008C152.882 42.524 152.99 43.108 152.99 43.76C152.99 44.404 152.882 44.986 152.666 45.506C152.45 46.022 152.128 46.43 151.7 46.73C151.272 47.03 150.742 47.18 150.11 47.18ZM150.332 45.884C150.72 45.884 151.032 45.796 151.268 45.62C151.508 45.44 151.682 45.19 151.79 44.87C151.902 44.55 151.958 44.18 151.958 43.76C151.958 43.336 151.902 42.966 151.79 42.65C151.682 42.33 151.512 42.082 151.28 41.906C151.048 41.726 150.748 41.636 150.38 41.636C149.992 41.636 149.672 41.732 149.42 41.924C149.168 42.112 148.982 42.368 148.862 42.692C148.742 43.012 148.682 43.368 148.682 43.76C148.682 44.156 148.74 44.516 148.856 44.84C148.976 45.16 149.158 45.414 149.402 45.602C149.646 45.79 149.956 45.884 150.332 45.884ZM151.958 47V42.452H151.778V38.36H153.236V47H151.958ZM157.348 47.186C156.868 47.186 156.472 47.106 156.16 46.946C155.848 46.786 155.6 46.582 155.416 46.334C155.232 46.086 155.096 45.822 155.008 45.542C154.92 45.262 154.862 44.998 154.834 44.75C154.81 44.498 154.798 44.294 154.798 44.138V40.52H156.262V43.64C156.262 43.84 156.276 44.066 156.304 44.318C156.332 44.566 156.396 44.806 156.496 45.038C156.6 45.266 156.752 45.454 156.952 45.602C157.156 45.75 157.43 45.824 157.774 45.824C157.958 45.824 158.14 45.794 158.32 45.734C158.5 45.674 158.662 45.572 158.806 45.428C158.954 45.28 159.072 45.078 159.16 44.822C159.248 44.566 159.292 44.242 159.292 43.85L160.15 44.216C160.15 44.768 160.042 45.268 159.826 45.716C159.614 46.164 159.3 46.522 158.884 46.79C158.468 47.054 157.956 47.186 157.348 47.186ZM159.466 47V44.99H159.292V40.52H160.744V47H159.466ZM165.244 47.18C164.576 47.18 164.006 47.032 163.534 46.736C163.062 46.436 162.7 46.028 162.448 45.512C162.2 44.996 162.074 44.412 162.07 43.76C162.074 43.096 162.204 42.508 162.46 41.996C162.72 41.48 163.088 41.076 163.564 40.784C164.04 40.488 164.606 40.34 165.262 40.34C165.998 40.34 166.62 40.526 167.128 40.898C167.64 41.266 167.974 41.77 168.13 42.41L166.69 42.8C166.578 42.452 166.392 42.182 166.132 41.99C165.872 41.794 165.576 41.696 165.244 41.696C164.868 41.696 164.558 41.786 164.314 41.966C164.07 42.142 163.89 42.386 163.774 42.698C163.658 43.01 163.6 43.364 163.6 43.76C163.6 44.376 163.738 44.874 164.014 45.254C164.29 45.634 164.7 45.824 165.244 45.824C165.628 45.824 165.93 45.736 166.15 45.56C166.374 45.384 166.542 45.13 166.654 44.798L168.13 45.128C167.93 45.788 167.58 46.296 167.08 46.652C166.58 47.004 165.968 47.18 165.244 47.18ZM171.039 47.18C170.571 47.18 170.175 47.092 169.851 46.916C169.527 46.736 169.281 46.498 169.113 46.202C168.949 45.906 168.867 45.58 168.867 45.224C168.867 44.912 168.919 44.632 169.023 44.384C169.127 44.132 169.287 43.916 169.503 43.736C169.719 43.552 169.999 43.402 170.343 43.286C170.603 43.202 170.907 43.126 171.255 43.058C171.607 42.99 171.987 42.928 172.395 42.872C172.807 42.812 173.237 42.748 173.685 42.68L173.169 42.974C173.173 42.526 173.073 42.196 172.869 41.984C172.665 41.772 172.321 41.666 171.837 41.666C171.545 41.666 171.263 41.734 170.991 41.87C170.719 42.006 170.529 42.24 170.421 42.572L169.101 42.158C169.261 41.61 169.565 41.17 170.013 40.838C170.465 40.506 171.073 40.34 171.837 40.34C172.413 40.34 172.919 40.434 173.355 40.622C173.795 40.81 174.121 41.118 174.333 41.546C174.449 41.774 174.519 42.008 174.543 42.248C174.567 42.484 174.579 42.742 174.579 43.022V47H173.313V45.596L173.523 45.824C173.231 46.292 172.889 46.636 172.497 46.856C172.109 47.072 171.623 47.18 171.039 47.18ZM171.327 46.028C171.655 46.028 171.935 45.97 172.167 45.854C172.399 45.738 172.583 45.596 172.719 45.428C172.859 45.26 172.953 45.102 173.001 44.954C173.077 44.77 173.119 44.56 173.127 44.324C173.139 44.084 173.145 43.89 173.145 43.742L173.589 43.874C173.153 43.942 172.779 44.002 172.467 44.054C172.155 44.106 171.887 44.156 171.663 44.204C171.439 44.248 171.241 44.298 171.069 44.354C170.901 44.414 170.759 44.484 170.643 44.564C170.527 44.644 170.437 44.736 170.373 44.84C170.313 44.944 170.283 45.066 170.283 45.206C170.283 45.366 170.323 45.508 170.403 45.632C170.483 45.752 170.599 45.848 170.751 45.92C170.907 45.992 171.099 46.028 171.327 46.028ZM178.745 49.898C178.585 49.898 178.435 49.876 178.295 49.832C178.159 49.792 178.033 49.742 177.917 49.682L178.235 48.824C178.399 48.88 178.527 48.908 178.619 48.908C178.739 48.908 178.831 48.872 178.895 48.8C178.963 48.732 178.997 48.66 178.997 48.584C178.997 48.428 178.917 48.314 178.757 48.242C178.601 48.17 178.419 48.104 178.211 48.044L178.637 46.814L179.513 46.808L179.273 47.504C179.505 47.616 179.685 47.764 179.813 47.948C179.941 48.132 180.005 48.354 180.005 48.614C180.005 48.994 179.879 49.302 179.627 49.538C179.379 49.778 179.085 49.898 178.745 49.898ZM178.955 47.18C178.287 47.18 177.717 47.032 177.245 46.736C176.773 46.436 176.411 46.028 176.159 45.512C175.911 44.996 175.785 44.412 175.781 43.76C175.785 43.096 175.915 42.508 176.171 41.996C176.431 41.48 176.799 41.076 177.275 40.784C177.751 40.488 178.317 40.34 178.973 40.34C179.709 40.34 180.331 40.526 180.839 40.898C181.351 41.266 181.685 41.77 181.841 42.41L180.401 42.8C180.289 42.452 180.103 42.182 179.843 41.99C179.583 41.794 179.287 41.696 178.955 41.696C178.579 41.696 178.269 41.786 178.025 41.966C177.781 42.142 177.601 42.386 177.485 42.698C177.369 43.01 177.311 43.364 177.311 43.76C177.311 44.376 177.449 44.874 177.725 45.254C178.001 45.634 178.411 45.824 178.955 45.824C179.339 45.824 179.641 45.736 179.861 45.56C180.085 45.384 180.253 45.13 180.365 44.798L181.841 45.128C181.641 45.788 181.291 46.296 180.791 46.652C180.291 47.004 179.679 47.18 178.955 47.18ZM186.748 39.56C186.56 39.56 186.378 39.518 186.202 39.434C186.03 39.35 185.864 39.254 185.704 39.146C185.548 39.034 185.4 38.936 185.26 38.852C185.12 38.768 184.992 38.726 184.876 38.726C184.748 38.726 184.66 38.792 184.612 38.924C184.568 39.052 184.572 39.21 184.624 39.398H183.712C183.596 38.918 183.624 38.512 183.796 38.18C183.968 37.844 184.286 37.676 184.75 37.676C184.938 37.676 185.118 37.718 185.29 37.802C185.466 37.886 185.634 37.984 185.794 38.096C185.954 38.204 186.102 38.3 186.238 38.384C186.378 38.468 186.506 38.51 186.622 38.51C186.75 38.51 186.838 38.446 186.886 38.318C186.934 38.186 186.932 38.024 186.88 37.832H187.792C187.908 38.308 187.88 38.716 187.708 39.056C187.536 39.392 187.216 39.56 186.748 39.56ZM184.75 47.18C184.282 47.18 183.886 47.092 183.562 46.916C183.238 46.736 182.992 46.498 182.824 46.202C182.66 45.906 182.578 45.58 182.578 45.224C182.578 44.912 182.63 44.632 182.734 44.384C182.838 44.132 182.998 43.916 183.214 43.736C183.43 43.552 183.71 43.402 184.054 43.286C184.314 43.202 184.618 43.126 184.966 43.058C185.318 42.99 185.698 42.928 186.106 42.872C186.518 42.812 186.948 42.748 187.396 42.68L186.88 42.974C186.884 42.526 186.784 42.196 186.58 41.984C186.376 41.772 186.032 41.666 185.548 41.666C185.256 41.666 184.974 41.734 184.702 41.87C184.43 42.006 184.24 42.24 184.132 42.572L182.812 42.158C182.972 41.61 183.276 41.17 183.724 40.838C184.176 40.506 184.784 40.34 185.548 40.34C186.124 40.34 186.63 40.434 187.066 40.622C187.506 40.81 187.832 41.118 188.044 41.546C188.16 41.774 188.23 42.008 188.254 42.248C188.278 42.484 188.29 42.742 188.29 43.022V47H187.024V45.596L187.234 45.824C186.942 46.292 186.6 46.636 186.208 46.856C185.82 47.072 185.334 47.18 184.75 47.18ZM185.038 46.028C185.366 46.028 185.646 45.97 185.878 45.854C186.11 45.738 186.294 45.596 186.43 45.428C186.57 45.26 186.664 45.102 186.712 44.954C186.788 44.77 186.83 44.56 186.838 44.324C186.85 44.084 186.856 43.89 186.856 43.742L187.3 43.874C186.864 43.942 186.49 44.002 186.178 44.054C185.866 44.106 185.598 44.156 185.374 44.204C185.15 44.248 184.952 44.298 184.78 44.354C184.612 44.414 184.47 44.484 184.354 44.564C184.238 44.644 184.148 44.736 184.084 44.84C184.024 44.944 183.994 45.066 183.994 45.206C183.994 45.366 184.034 45.508 184.114 45.632C184.194 45.752 184.31 45.848 184.462 45.92C184.618 45.992 184.81 46.028 185.038 46.028ZM192.714 47.18C192.066 47.18 191.5 47.034 191.016 46.742C190.532 46.45 190.156 46.048 189.888 45.536C189.624 45.02 189.492 44.428 189.492 43.76C189.492 43.08 189.628 42.484 189.9 41.972C190.172 41.46 190.55 41.06 191.034 40.772C191.518 40.484 192.078 40.34 192.714 40.34C193.366 40.34 193.934 40.486 194.418 40.778C194.902 41.07 195.278 41.474 195.546 41.99C195.814 42.502 195.948 43.092 195.948 43.76C195.948 44.432 195.812 45.026 195.54 45.542C195.272 46.054 194.896 46.456 194.412 46.748C193.928 47.036 193.362 47.18 192.714 47.18ZM192.714 45.824C193.29 45.824 193.718 45.632 193.998 45.248C194.278 44.864 194.418 44.368 194.418 43.76C194.418 43.132 194.276 42.632 193.992 42.26C193.708 41.884 193.282 41.696 192.714 41.696C192.326 41.696 192.006 41.784 191.754 41.96C191.506 42.132 191.322 42.374 191.202 42.686C191.082 42.994 191.022 43.352 191.022 43.76C191.022 44.388 191.164 44.89 191.448 45.266C191.736 45.638 192.158 45.824 192.714 45.824ZM202.27 47.18C201.674 47.18 201.154 47.03 200.71 46.73C200.266 46.43 199.922 46.022 199.678 45.506C199.434 44.99 199.312 44.408 199.312 43.76C199.312 43.104 199.434 42.52 199.678 42.008C199.926 41.492 200.276 41.086 200.728 40.79C201.18 40.49 201.712 40.34 202.324 40.34C202.94 40.34 203.456 40.49 203.872 40.79C204.292 41.086 204.61 41.492 204.826 42.008C205.042 42.524 205.15 43.108 205.15 43.76C205.15 44.404 205.042 44.986 204.826 45.506C204.61 46.022 204.288 46.43 203.86 46.73C203.432 47.03 202.902 47.18 202.27 47.18ZM202.492 45.884C202.88 45.884 203.192 45.796 203.428 45.62C203.668 45.44 203.842 45.19 203.95 44.87C204.062 44.55 204.118 44.18 204.118 43.76C204.118 43.336 204.062 42.966 203.95 42.65C203.842 42.33 203.672 42.082 203.44 41.906C203.208 41.726 202.908 41.636 202.54 41.636C202.152 41.636 201.832 41.732 201.58 41.924C201.328 42.112 201.142 42.368 201.022 42.692C200.902 43.012 200.842 43.368 200.842 43.76C200.842 44.156 200.9 44.516 201.016 44.84C201.136 45.16 201.318 45.414 201.562 45.602C201.806 45.79 202.116 45.884 202.492 45.884ZM204.118 47V42.452H203.938V38.36H205.396V47H204.118ZM207.198 39.536V38.21H208.644V39.536H207.198ZM207.198 47V40.52H208.644V47H207.198ZM213.166 50.06C212.806 50.06 212.46 50.004 212.128 49.892C211.8 49.78 211.504 49.618 211.24 49.406C210.976 49.198 210.76 48.946 210.592 48.65L211.924 47.99C212.048 48.226 212.222 48.4 212.446 48.512C212.674 48.628 212.916 48.686 213.172 48.686C213.472 48.686 213.74 48.632 213.976 48.524C214.212 48.42 214.394 48.264 214.522 48.056C214.654 47.852 214.716 47.596 214.708 47.288V45.446H214.888V40.52H216.154V47.312C216.154 47.476 216.146 47.632 216.13 47.78C216.118 47.932 216.096 48.08 216.064 48.224C215.968 48.644 215.784 48.988 215.512 49.256C215.24 49.528 214.902 49.73 214.498 49.862C214.098 49.994 213.654 50.06 213.166 50.06ZM213.04 47.18C212.444 47.18 211.924 47.03 211.48 46.73C211.036 46.43 210.692 46.022 210.448 45.506C210.204 44.99 210.082 44.408 210.082 43.76C210.082 43.104 210.204 42.52 210.448 42.008C210.696 41.492 211.046 41.086 211.498 40.79C211.95 40.49 212.482 40.34 213.094 40.34C213.71 40.34 214.226 40.49 214.642 40.79C215.062 41.086 215.38 41.492 215.596 42.008C215.812 42.524 215.92 43.108 215.92 43.76C215.92 44.404 215.812 44.986 215.596 45.506C215.38 46.022 215.058 46.43 214.63 46.73C214.202 47.03 213.672 47.18 213.04 47.18ZM213.262 45.884C213.65 45.884 213.962 45.796 214.198 45.62C214.438 45.44 214.612 45.19 214.72 44.87C214.832 44.55 214.888 44.18 214.888 43.76C214.888 43.336 214.832 42.966 214.72 42.65C214.612 42.33 214.442 42.082 214.21 41.906C213.978 41.726 213.678 41.636 213.31 41.636C212.922 41.636 212.602 41.732 212.35 41.924C212.098 42.112 211.912 42.368 211.792 42.692C211.672 43.012 211.612 43.368 211.612 43.76C211.612 44.156 211.67 44.516 211.786 44.84C211.906 45.16 212.088 45.414 212.332 45.602C212.576 45.79 212.886 45.884 213.262 45.884ZM217.956 39.536V38.21H219.402V39.536H217.956ZM217.956 47V40.52H219.402V47H217.956ZM224.997 47C224.569 47.08 224.149 47.114 223.737 47.102C223.329 47.094 222.963 47.02 222.639 46.88C222.315 46.736 222.069 46.51 221.901 46.202C221.753 45.922 221.675 45.636 221.667 45.344C221.659 45.052 221.655 44.722 221.655 44.354V38.72H223.095V44.27C223.095 44.53 223.097 44.758 223.101 44.954C223.109 45.15 223.151 45.31 223.227 45.434C223.371 45.674 223.601 45.808 223.917 45.836C224.233 45.864 224.593 45.848 224.997 45.788V47ZM220.479 41.654V40.52H224.997V41.654H220.479ZM228.203 47.18C227.735 47.18 227.339 47.092 227.015 46.916C226.691 46.736 226.445 46.498 226.277 46.202C226.113 45.906 226.031 45.58 226.031 45.224C226.031 44.912 226.083 44.632 226.187 44.384C226.291 44.132 226.451 43.916 226.667 43.736C226.883 43.552 227.163 43.402 227.507 43.286C227.767 43.202 228.071 43.126 228.419 43.058C228.771 42.99 229.151 42.928 229.559 42.872C229.971 42.812 230.401 42.748 230.849 42.68L230.333 42.974C230.337 42.526 230.237 42.196 230.033 41.984C229.829 41.772 229.485 41.666 229.001 41.666C228.709 41.666 228.427 41.734 228.155 41.87C227.883 42.006 227.693 42.24 227.585 42.572L226.265 42.158C226.425 41.61 226.729 41.17 227.177 40.838C227.629 40.506 228.237 40.34 229.001 40.34C229.577 40.34 230.083 40.434 230.519 40.622C230.959 40.81 231.285 41.118 231.497 41.546C231.613 41.774 231.683 42.008 231.707 42.248C231.731 42.484 231.743 42.742 231.743 43.022V47H230.477V45.596L230.687 45.824C230.395 46.292 230.053 46.636 229.661 46.856C229.273 47.072 228.787 47.18 228.203 47.18ZM228.491 46.028C228.819 46.028 229.099 45.97 229.331 45.854C229.563 45.738 229.747 45.596 229.883 45.428C230.023 45.26 230.117 45.102 230.165 44.954C230.241 44.77 230.283 44.56 230.291 44.324C230.303 44.084 230.309 43.89 230.309 43.742L230.753 43.874C230.317 43.942 229.943 44.002 229.631 44.054C229.319 44.106 229.051 44.156 228.827 44.204C228.603 44.248 228.405 44.298 228.233 44.354C228.065 44.414 227.923 44.484 227.807 44.564C227.691 44.644 227.601 44.736 227.537 44.84C227.477 44.944 227.447 45.066 227.447 45.206C227.447 45.366 227.487 45.508 227.567 45.632C227.647 45.752 227.763 45.848 227.915 45.92C228.071 45.992 228.263 46.028 228.491 46.028ZM233.425 47V38.18H234.871V47H233.425ZM242.616 39.59H241.518L242.442 37.37H243.54L242.616 39.59ZM242.016 47.18C241.36 47.18 240.784 47.038 240.288 46.754C239.792 46.47 239.404 46.076 239.124 45.572C238.848 45.068 238.71 44.488 238.71 43.832C238.71 43.124 238.846 42.51 239.118 41.99C239.39 41.466 239.768 41.06 240.252 40.772C240.736 40.484 241.296 40.34 241.932 40.34C242.604 40.34 243.174 40.498 243.642 40.814C244.114 41.126 244.464 41.568 244.692 42.14C244.92 42.712 245.006 43.386 244.95 44.162H243.516V43.634C243.512 42.93 243.388 42.416 243.144 42.092C242.9 41.768 242.516 41.606 241.992 41.606C241.4 41.606 240.96 41.79 240.672 42.158C240.384 42.522 240.24 43.056 240.24 43.76C240.24 44.416 240.384 44.924 240.672 45.284C240.96 45.644 241.38 45.824 241.932 45.824C242.288 45.824 242.594 45.746 242.85 45.59C243.11 45.43 243.31 45.2 243.45 44.9L244.878 45.332C244.63 45.916 244.246 46.37 243.726 46.694C243.21 47.018 242.64 47.18 242.016 47.18ZM239.784 44.162V43.07H244.242V44.162H239.784ZM251.506 47.18C250.838 47.18 250.268 47.032 249.796 46.736C249.324 46.436 248.962 46.028 248.71 45.512C248.462 44.996 248.336 44.412 248.332 43.76C248.336 43.096 248.466 42.508 248.722 41.996C248.982 41.48 249.35 41.076 249.826 40.784C250.302 40.488 250.868 40.34 251.524 40.34C252.26 40.34 252.882 40.526 253.39 40.898C253.902 41.266 254.236 41.77 254.392 42.41L252.952 42.8C252.84 42.452 252.654 42.182 252.394 41.99C252.134 41.794 251.838 41.696 251.506 41.696C251.13 41.696 250.82 41.786 250.576 41.966C250.332 42.142 250.152 42.386 250.036 42.698C249.92 43.01 249.862 43.364 249.862 43.76C249.862 44.376 250 44.874 250.276 45.254C250.552 45.634 250.962 45.824 251.506 45.824C251.89 45.824 252.192 45.736 252.412 45.56C252.636 45.384 252.804 45.13 252.916 44.798L254.392 45.128C254.192 45.788 253.842 46.296 253.342 46.652C252.842 47.004 252.23 47.18 251.506 47.18ZM255.594 47V40.52H256.872V42.098L256.716 41.894C256.796 41.678 256.902 41.482 257.034 41.306C257.17 41.126 257.332 40.978 257.52 40.862C257.68 40.754 257.856 40.67 258.048 40.61C258.244 40.546 258.444 40.508 258.648 40.496C258.852 40.48 259.05 40.488 259.242 40.52V41.87C259.05 41.814 258.828 41.796 258.576 41.816C258.328 41.836 258.104 41.906 257.904 42.026C257.704 42.134 257.54 42.272 257.412 42.44C257.288 42.608 257.196 42.8 257.136 43.016C257.076 43.228 257.046 43.458 257.046 43.706V47H255.594ZM262.817 47.186C262.337 47.186 261.941 47.106 261.629 46.946C261.317 46.786 261.069 46.582 260.885 46.334C260.701 46.086 260.565 45.822 260.477 45.542C260.389 45.262 260.331 44.998 260.303 44.75C260.279 44.498 260.267 44.294 260.267 44.138V40.52H261.731V43.64C261.731 43.84 261.745 44.066 261.773 44.318C261.801 44.566 261.865 44.806 261.965 45.038C262.069 45.266 262.221 45.454 262.421 45.602C262.625 45.75 262.899 45.824 263.243 45.824C263.427 45.824 263.609 45.794 263.789 45.734C263.969 45.674 264.131 45.572 264.275 45.428C264.423 45.28 264.541 45.078 264.629 44.822C264.717 44.566 264.761 44.242 264.761 43.85L265.619 44.216C265.619 44.768 265.511 45.268 265.295 45.716C265.083 46.164 264.769 46.522 264.353 46.79C263.937 47.054 263.425 47.186 262.817 47.186ZM264.935 47V44.99H264.761V40.52H266.213V47H264.935ZM270.713 47.18C270.045 47.18 269.475 47.032 269.003 46.736C268.531 46.436 268.169 46.028 267.917 45.512C267.669 44.996 267.543 44.412 267.539 43.76C267.543 43.096 267.673 42.508 267.929 41.996C268.189 41.48 268.557 41.076 269.033 40.784C269.509 40.488 270.075 40.34 270.731 40.34C271.467 40.34 272.089 40.526 272.597 40.898C273.109 41.266 273.443 41.77 273.599 42.41L272.159 42.8C272.047 42.452 271.861 42.182 271.601 41.99C271.341 41.794 271.045 41.696 270.713 41.696C270.337 41.696 270.027 41.786 269.783 41.966C269.539 42.142 269.359 42.386 269.243 42.698C269.127 43.01 269.069 43.364 269.069 43.76C269.069 44.376 269.207 44.874 269.483 45.254C269.759 45.634 270.169 45.824 270.713 45.824C271.097 45.824 271.399 45.736 271.619 45.56C271.843 45.384 272.011 45.13 272.123 44.798L273.599 45.128C273.399 45.788 273.049 46.296 272.549 46.652C272.049 47.004 271.437 47.18 270.713 47.18ZM274.745 39.536V38.21H276.191V39.536H274.745ZM274.745 47V40.52H276.191V47H274.745ZM279.8 47.18C279.332 47.18 278.936 47.092 278.612 46.916C278.288 46.736 278.042 46.498 277.874 46.202C277.71 45.906 277.628 45.58 277.628 45.224C277.628 44.912 277.68 44.632 277.784 44.384C277.888 44.132 278.048 43.916 278.264 43.736C278.48 43.552 278.76 43.402 279.104 43.286C279.364 43.202 279.668 43.126 280.016 43.058C280.368 42.99 280.748 42.928 281.156 42.872C281.568 42.812 281.998 42.748 282.446 42.68L281.93 42.974C281.934 42.526 281.834 42.196 281.63 41.984C281.426 41.772 281.082 41.666 280.598 41.666C280.306 41.666 280.024 41.734 279.752 41.87C279.48 42.006 279.29 42.24 279.182 42.572L277.862 42.158C278.022 41.61 278.326 41.17 278.774 40.838C279.226 40.506 279.834 40.34 280.598 40.34C281.174 40.34 281.68 40.434 282.116 40.622C282.556 40.81 282.882 41.118 283.094 41.546C283.21 41.774 283.28 42.008 283.304 42.248C283.328 42.484 283.34 42.742 283.34 43.022V47H282.074V45.596L282.284 45.824C281.992 46.292 281.65 46.636 281.258 46.856C280.87 47.072 280.384 47.18 279.8 47.18ZM280.088 46.028C280.416 46.028 280.696 45.97 280.928 45.854C281.16 45.738 281.344 45.596 281.48 45.428C281.62 45.26 281.714 45.102 281.762 44.954C281.838 44.77 281.88 44.56 281.888 44.324C281.9 44.084 281.906 43.89 281.906 43.742L282.35 43.874C281.914 43.942 281.54 44.002 281.228 44.054C280.916 44.106 280.648 44.156 280.424 44.204C280.2 44.248 280.002 44.298 279.83 44.354C279.662 44.414 279.52 44.484 279.404 44.564C279.288 44.644 279.198 44.736 279.134 44.84C279.074 44.944 279.044 45.066 279.044 45.206C279.044 45.366 279.084 45.508 279.164 45.632C279.244 45.752 279.36 45.848 279.512 45.92C279.668 45.992 279.86 46.028 280.088 46.028ZM285.023 47V38.18H286.469V47H285.023ZM293.782 47.18C293.15 47.18 292.62 47.03 292.192 46.73C291.764 46.43 291.442 46.022 291.226 45.506C291.01 44.986 290.902 44.404 290.902 43.76C290.902 43.108 291.01 42.524 291.226 42.008C291.442 41.492 291.758 41.086 292.174 40.79C292.594 40.49 293.112 40.34 293.728 40.34C294.34 40.34 294.87 40.49 295.318 40.79C295.77 41.086 296.12 41.492 296.368 42.008C296.616 42.52 296.74 43.104 296.74 43.76C296.74 44.408 296.618 44.99 296.374 45.506C296.13 46.022 295.786 46.43 295.342 46.73C294.898 47.03 294.378 47.18 293.782 47.18ZM290.656 49.88V40.52H291.934V45.068H292.114V49.88H290.656ZM293.56 45.884C293.936 45.884 294.246 45.79 294.49 45.602C294.734 45.414 294.914 45.16 295.03 44.84C295.15 44.516 295.21 44.156 295.21 43.76C295.21 43.368 295.15 43.012 295.03 42.692C294.91 42.368 294.724 42.112 294.472 41.924C294.22 41.732 293.9 41.636 293.512 41.636C293.144 41.636 292.844 41.726 292.612 41.906C292.38 42.082 292.208 42.33 292.096 42.65C291.988 42.966 291.934 43.336 291.934 43.76C291.934 44.18 291.988 44.55 292.096 44.87C292.208 45.19 292.382 45.44 292.618 45.62C292.858 45.796 293.172 45.884 293.56 45.884ZM299.875 47.18C299.407 47.18 299.011 47.092 298.687 46.916C298.363 46.736 298.117 46.498 297.949 46.202C297.785 45.906 297.703 45.58 297.703 45.224C297.703 44.912 297.755 44.632 297.859 44.384C297.963 44.132 298.123 43.916 298.339 43.736C298.555 43.552 298.835 43.402 299.179 43.286C299.439 43.202 299.743 43.126 300.091 43.058C300.443 42.99 300.823 42.928 301.231 42.872C301.643 42.812 302.073 42.748 302.521 42.68L302.005 42.974C302.009 42.526 301.909 42.196 301.705 41.984C301.501 41.772 301.157 41.666 300.673 41.666C300.381 41.666 300.099 41.734 299.827 41.87C299.555 42.006 299.365 42.24 299.257 42.572L297.937 42.158C298.097 41.61 298.401 41.17 298.849 40.838C299.301 40.506 299.909 40.34 300.673 40.34C301.249 40.34 301.755 40.434 302.191 40.622C302.631 40.81 302.957 41.118 303.169 41.546C303.285 41.774 303.355 42.008 303.379 42.248C303.403 42.484 303.415 42.742 303.415 43.022V47H302.149V45.596L302.359 45.824C302.067 46.292 301.725 46.636 301.333 46.856C300.945 47.072 300.459 47.18 299.875 47.18ZM300.163 46.028C300.491 46.028 300.771 45.97 301.003 45.854C301.235 45.738 301.419 45.596 301.555 45.428C301.695 45.26 301.789 45.102 301.837 44.954C301.913 44.77 301.955 44.56 301.963 44.324C301.975 44.084 301.981 43.89 301.981 43.742L302.425 43.874C301.989 43.942 301.615 44.002 301.303 44.054C300.991 44.106 300.723 44.156 300.499 44.204C300.275 44.248 300.077 44.298 299.905 44.354C299.737 44.414 299.595 44.484 299.479 44.564C299.363 44.644 299.273 44.736 299.209 44.84C299.149 44.944 299.119 45.066 299.119 45.206C299.119 45.366 299.159 45.508 299.239 45.632C299.319 45.752 299.435 45.848 299.587 45.92C299.743 45.992 299.935 46.028 300.163 46.028ZM304.977 47V40.52H306.255V42.098L306.099 41.894C306.179 41.678 306.285 41.482 306.417 41.306C306.553 41.126 306.715 40.978 306.903 40.862C307.063 40.754 307.239 40.67 307.431 40.61C307.627 40.546 307.827 40.508 308.031 40.496C308.235 40.48 308.433 40.488 308.625 40.52V41.87C308.433 41.814 308.211 41.796 307.959 41.816C307.711 41.836 307.487 41.906 307.287 42.026C307.087 42.134 306.923 42.272 306.795 42.44C306.671 42.608 306.579 42.8 306.519 43.016C306.459 43.228 306.429 43.458 306.429 43.706V47H304.977ZM311.429 47.18C310.961 47.18 310.565 47.092 310.241 46.916C309.917 46.736 309.671 46.498 309.503 46.202C309.339 45.906 309.257 45.58 309.257 45.224C309.257 44.912 309.309 44.632 309.413 44.384C309.517 44.132 309.677 43.916 309.893 43.736C310.109 43.552 310.389 43.402 310.733 43.286C310.993 43.202 311.297 43.126 311.645 43.058C311.997 42.99 312.377 42.928 312.785 42.872C313.197 42.812 313.627 42.748 314.075 42.68L313.559 42.974C313.563 42.526 313.463 42.196 313.259 41.984C313.055 41.772 312.711 41.666 312.227 41.666C311.935 41.666 311.653 41.734 311.381 41.87C311.109 42.006 310.919 42.24 310.811 42.572L309.491 42.158C309.651 41.61 309.955 41.17 310.403 40.838C310.855 40.506 311.463 40.34 312.227 40.34C312.803 40.34 313.309 40.434 313.745 40.622C314.185 40.81 314.511 41.118 314.723 41.546C314.839 41.774 314.909 42.008 314.933 42.248C314.957 42.484 314.969 42.742 314.969 43.022V47H313.703V45.596L313.913 45.824C313.621 46.292 313.279 46.636 312.887 46.856C312.499 47.072 312.013 47.18 311.429 47.18ZM311.717 46.028C312.045 46.028 312.325 45.97 312.557 45.854C312.789 45.738 312.973 45.596 313.109 45.428C313.249 45.26 313.343 45.102 313.391 44.954C313.467 44.77 313.509 44.56 313.517 44.324C313.529 44.084 313.535 43.89 313.535 43.742L313.979 43.874C313.543 43.942 313.169 44.002 312.857 44.054C312.545 44.106 312.277 44.156 312.053 44.204C311.829 44.248 311.631 44.298 311.459 44.354C311.291 44.414 311.149 44.484 311.033 44.564C310.917 44.644 310.827 44.736 310.763 44.84C310.703 44.944 310.673 45.066 310.673 45.206C310.673 45.366 310.713 45.508 310.793 45.632C310.873 45.752 310.989 45.848 311.141 45.92C311.297 45.992 311.489 46.028 311.717 46.028ZM326.716 47V43.064C326.716 42.62 326.606 42.274 326.386 42.026C326.166 41.774 325.868 41.648 325.492 41.648C325.26 41.648 325.052 41.702 324.868 41.81C324.684 41.914 324.538 42.07 324.43 42.278C324.322 42.482 324.268 42.726 324.268 43.01L323.626 42.632C323.622 42.184 323.722 41.79 323.926 41.45C324.134 41.106 324.414 40.838 324.766 40.646C325.118 40.454 325.51 40.358 325.942 40.358C326.658 40.358 327.206 40.574 327.586 41.006C327.97 41.434 328.162 41.998 328.162 42.698V47H326.716ZM318.922 47V40.52H320.2V42.53H320.38V47H318.922ZM322.828 47V43.082C322.828 42.63 322.718 42.278 322.498 42.026C322.278 41.774 321.978 41.648 321.598 41.648C321.23 41.648 320.934 41.774 320.71 42.026C320.49 42.278 320.38 42.606 320.38 43.01L319.732 42.578C319.732 42.158 319.836 41.78 320.044 41.444C320.252 41.108 320.532 40.844 320.884 40.652C321.24 40.456 321.638 40.358 322.078 40.358C322.562 40.358 322.966 40.462 323.29 40.67C323.618 40.874 323.862 41.154 324.022 41.51C324.186 41.862 324.268 42.26 324.268 42.704V47H322.828ZM329.847 39.536V38.21H331.293V39.536H329.847ZM329.847 47V40.52H331.293V47H329.847ZM336.888 47C336.46 47.08 336.04 47.114 335.628 47.102C335.22 47.094 334.854 47.02 334.53 46.88C334.206 46.736 333.96 46.51 333.792 46.202C333.644 45.922 333.566 45.636 333.558 45.344C333.55 45.052 333.546 44.722 333.546 44.354V38.72H334.986V44.27C334.986 44.53 334.988 44.758 334.992 44.954C335 45.15 335.042 45.31 335.118 45.434C335.262 45.674 335.492 45.808 335.808 45.836C336.124 45.864 336.484 45.848 336.888 45.788V47ZM332.37 41.654V40.52H336.888V41.654H332.37ZM338.401 39.536V38.21H339.847V39.536H338.401ZM338.401 47V40.52H339.847V47H338.401ZM344.369 50.06C344.009 50.06 343.663 50.004 343.331 49.892C343.003 49.78 342.707 49.618 342.443 49.406C342.179 49.198 341.963 48.946 341.795 48.65L343.127 47.99C343.251 48.226 343.425 48.4 343.649 48.512C343.877 48.628 344.119 48.686 344.375 48.686C344.675 48.686 344.943 48.632 345.179 48.524C345.415 48.42 345.597 48.264 345.725 48.056C345.857 47.852 345.919 47.596 345.911 47.288V45.446H346.091V40.52H347.357V47.312C347.357 47.476 347.349 47.632 347.333 47.78C347.321 47.932 347.299 48.08 347.267 48.224C347.171 48.644 346.987 48.988 346.715 49.256C346.443 49.528 346.105 49.73 345.701 49.862C345.301 49.994 344.857 50.06 344.369 50.06ZM344.243 47.18C343.647 47.18 343.127 47.03 342.683 46.73C342.239 46.43 341.895 46.022 341.651 45.506C341.407 44.99 341.285 44.408 341.285 43.76C341.285 43.104 341.407 42.52 341.651 42.008C341.899 41.492 342.249 41.086 342.701 40.79C343.153 40.49 343.685 40.34 344.297 40.34C344.913 40.34 345.429 40.49 345.845 40.79C346.265 41.086 346.583 41.492 346.799 42.008C347.015 42.524 347.123 43.108 347.123 43.76C347.123 44.404 347.015 44.986 346.799 45.506C346.583 46.022 346.261 46.43 345.833 46.73C345.405 47.03 344.875 47.18 344.243 47.18ZM344.465 45.884C344.853 45.884 345.165 45.796 345.401 45.62C345.641 45.44 345.815 45.19 345.923 44.87C346.035 44.55 346.091 44.18 346.091 43.76C346.091 43.336 346.035 42.966 345.923 42.65C345.815 42.33 345.645 42.082 345.413 41.906C345.181 41.726 344.881 41.636 344.513 41.636C344.125 41.636 343.805 41.732 343.553 41.924C343.301 42.112 343.115 42.368 342.995 42.692C342.875 43.012 342.815 43.368 342.815 43.76C342.815 44.156 342.873 44.516 342.989 44.84C343.109 45.16 343.291 45.414 343.535 45.602C343.779 45.79 344.089 45.884 344.465 45.884ZM350.851 47.18C350.383 47.18 349.987 47.092 349.663 46.916C349.339 46.736 349.093 46.498 348.925 46.202C348.761 45.906 348.679 45.58 348.679 45.224C348.679 44.912 348.731 44.632 348.835 44.384C348.939 44.132 349.099 43.916 349.315 43.736C349.531 43.552 349.811 43.402 350.155 43.286C350.415 43.202 350.719 43.126 351.067 43.058C351.419 42.99 351.799 42.928 352.207 42.872C352.619 42.812 353.049 42.748 353.497 42.68L352.981 42.974C352.985 42.526 352.885 42.196 352.681 41.984C352.477 41.772 352.133 41.666 351.649 41.666C351.357 41.666 351.075 41.734 350.803 41.87C350.531 42.006 350.341 42.24 350.233 42.572L348.913 42.158C349.073 41.61 349.377 41.17 349.825 40.838C350.277 40.506 350.885 40.34 351.649 40.34C352.225 40.34 352.731 40.434 353.167 40.622C353.607 40.81 353.933 41.118 354.145 41.546C354.261 41.774 354.331 42.008 354.355 42.248C354.379 42.484 354.391 42.742 354.391 43.022V47H353.125V45.596L353.335 45.824C353.043 46.292 352.701 46.636 352.309 46.856C351.921 47.072 351.435 47.18 350.851 47.18ZM351.139 46.028C351.467 46.028 351.747 45.97 351.979 45.854C352.211 45.738 352.395 45.596 352.531 45.428C352.671 45.26 352.765 45.102 352.813 44.954C352.889 44.77 352.931 44.56 352.939 44.324C352.951 44.084 352.957 43.89 352.957 43.742L353.401 43.874C352.965 43.942 352.591 44.002 352.279 44.054C351.967 44.106 351.699 44.156 351.475 44.204C351.251 44.248 351.053 44.298 350.881 44.354C350.713 44.414 350.571 44.484 350.455 44.564C350.339 44.644 350.249 44.736 350.185 44.84C350.125 44.944 350.095 45.066 350.095 45.206C350.095 45.366 350.135 45.508 350.215 45.632C350.295 45.752 350.411 45.848 350.563 45.92C350.719 45.992 350.911 46.028 351.139 46.028ZM355.953 47V40.52H357.231V42.098L357.075 41.894C357.155 41.678 357.261 41.482 357.393 41.306C357.529 41.126 357.691 40.978 357.879 40.862C358.039 40.754 358.215 40.67 358.407 40.61C358.603 40.546 358.803 40.508 359.007 40.496C359.211 40.48 359.409 40.488 359.601 40.52V41.87C359.409 41.814 359.187 41.796 358.935 41.816C358.687 41.836 358.463 41.906 358.263 42.026C358.063 42.134 357.899 42.272 357.771 42.44C357.647 42.608 357.555 42.8 357.495 43.016C357.435 43.228 357.405 43.458 357.405 43.706V47H355.953ZM366.095 47.18C365.439 47.18 364.863 47.038 364.367 46.754C363.871 46.47 363.483 46.076 363.203 45.572C362.927 45.068 362.789 44.488 362.789 43.832C362.789 43.124 362.925 42.51 363.197 41.99C363.469 41.466 363.847 41.06 364.331 40.772C364.815 40.484 365.375 40.34 366.011 40.34C366.683 40.34 367.253 40.498 367.721 40.814C368.193 41.126 368.543 41.568 368.771 42.14C368.999 42.712 369.085 43.386 369.029 44.162H367.595V43.634C367.591 42.93 367.467 42.416 367.223 42.092C366.979 41.768 366.595 41.606 366.071 41.606C365.479 41.606 365.039 41.79 364.751 42.158C364.463 42.522 364.319 43.056 364.319 43.76C364.319 44.416 364.463 44.924 364.751 45.284C365.039 45.644 365.459 45.824 366.011 45.824C366.367 45.824 366.673 45.746 366.929 45.59C367.189 45.43 367.389 45.2 367.529 44.9L368.957 45.332C368.709 45.916 368.325 46.37 367.805 46.694C367.289 47.018 366.719 47.18 366.095 47.18ZM363.863 44.162V43.07H368.321V44.162H363.863ZM372.869 47.18C372.069 47.18 371.419 47 370.919 46.64C370.419 46.28 370.115 45.774 370.007 45.122L371.483 44.894C371.559 45.214 371.727 45.466 371.987 45.65C372.247 45.834 372.575 45.926 372.971 45.926C373.319 45.926 373.587 45.858 373.775 45.722C373.967 45.582 374.063 45.392 374.063 45.152C374.063 45.004 374.027 44.886 373.955 44.798C373.887 44.706 373.735 44.618 373.499 44.534C373.263 44.45 372.901 44.344 372.413 44.216C371.869 44.072 371.437 43.918 371.117 43.754C370.797 43.586 370.567 43.388 370.427 43.16C370.287 42.932 370.217 42.656 370.217 42.332C370.217 41.928 370.323 41.576 370.535 41.276C370.747 40.976 371.043 40.746 371.423 40.586C371.803 40.422 372.251 40.34 372.767 40.34C373.271 40.34 373.717 40.418 374.105 40.574C374.497 40.73 374.813 40.952 375.053 41.24C375.293 41.528 375.441 41.866 375.497 42.254L374.021 42.518C373.985 42.242 373.859 42.024 373.643 41.864C373.431 41.704 373.147 41.614 372.791 41.594C372.451 41.574 372.177 41.626 371.969 41.75C371.761 41.87 371.657 42.04 371.657 42.26C371.657 42.384 371.699 42.49 371.783 42.578C371.867 42.666 372.035 42.754 372.287 42.842C372.543 42.93 372.923 43.038 373.427 43.166C373.943 43.298 374.355 43.45 374.663 43.622C374.975 43.79 375.199 43.992 375.335 44.228C375.475 44.464 375.545 44.75 375.545 45.086C375.545 45.738 375.307 46.25 374.831 46.622C374.359 46.994 373.705 47.18 372.869 47.18ZM379.362 47.18C378.562 47.18 377.912 47 377.412 46.64C376.912 46.28 376.608 45.774 376.5 45.122L377.976 44.894C378.052 45.214 378.22 45.466 378.48 45.65C378.74 45.834 379.068 45.926 379.464 45.926C379.812 45.926 380.08 45.858 380.268 45.722C380.46 45.582 380.556 45.392 380.556 45.152C380.556 45.004 380.52 44.886 380.448 44.798C380.38 44.706 380.228 44.618 379.992 44.534C379.756 44.45 379.394 44.344 378.906 44.216C378.362 44.072 377.93 43.918 377.61 43.754C377.29 43.586 377.06 43.388 376.92 43.16C376.78 42.932 376.71 42.656 376.71 42.332C376.71 41.928 376.816 41.576 377.028 41.276C377.24 40.976 377.536 40.746 377.916 40.586C378.296 40.422 378.744 40.34 379.26 40.34C379.764 40.34 380.21 40.418 380.598 40.574C380.99 40.73 381.306 40.952 381.546 41.24C381.786 41.528 381.934 41.866 381.99 42.254L380.514 42.518C380.478 42.242 380.352 42.024 380.136 41.864C379.924 41.704 379.64 41.614 379.284 41.594C378.944 41.574 378.67 41.626 378.462 41.75C378.254 41.87 378.15 42.04 378.15 42.26C378.15 42.384 378.192 42.49 378.276 42.578C378.36 42.666 378.528 42.754 378.78 42.842C379.036 42.93 379.416 43.038 379.92 43.166C380.436 43.298 380.848 43.45 381.156 43.622C381.468 43.79 381.692 43.992 381.828 44.228C381.968 44.464 382.038 44.75 382.038 45.086C382.038 45.738 381.8 46.25 381.324 46.622C380.852 46.994 380.198 47.18 379.362 47.18ZM386.298 47.18C385.642 47.18 385.066 47.038 384.57 46.754C384.074 46.47 383.686 46.076 383.406 45.572C383.13 45.068 382.992 44.488 382.992 43.832C382.992 43.124 383.128 42.51 383.4 41.99C383.672 41.466 384.05 41.06 384.534 40.772C385.018 40.484 385.578 40.34 386.214 40.34C386.886 40.34 387.456 40.498 387.924 40.814C388.396 41.126 388.746 41.568 388.974 42.14C389.202 42.712 389.288 43.386 389.232 44.162H387.798V43.634C387.794 42.93 387.67 42.416 387.426 42.092C387.182 41.768 386.798 41.606 386.274 41.606C385.682 41.606 385.242 41.79 384.954 42.158C384.666 42.522 384.522 43.056 384.522 43.76C384.522 44.416 384.666 44.924 384.954 45.284C385.242 45.644 385.662 45.824 386.214 45.824C386.57 45.824 386.876 45.746 387.132 45.59C387.392 45.43 387.592 45.2 387.732 44.9L389.16 45.332C388.912 45.916 388.528 46.37 388.008 46.694C387.492 47.018 386.922 47.18 386.298 47.18ZM384.066 44.162V43.07H388.524V44.162H384.066ZM396.087 47.18C395.455 47.18 394.925 47.03 394.497 46.73C394.069 46.43 393.747 46.022 393.531 45.506C393.315 44.986 393.207 44.404 393.207 43.76C393.207 43.108 393.315 42.524 393.531 42.008C393.747 41.492 394.063 41.086 394.479 40.79C394.899 40.49 395.417 40.34 396.033 40.34C396.645 40.34 397.175 40.49 397.623 40.79C398.075 41.086 398.425 41.492 398.673 42.008C398.921 42.52 399.045 43.104 399.045 43.76C399.045 44.408 398.923 44.99 398.679 45.506C398.435 46.022 398.091 46.43 397.647 46.73C397.203 47.03 396.683 47.18 396.087 47.18ZM392.961 49.88V40.52H394.239V45.068H394.419V49.88H392.961ZM395.865 45.884C396.241 45.884 396.551 45.79 396.795 45.602C397.039 45.414 397.219 45.16 397.335 44.84C397.455 44.516 397.515 44.156 397.515 43.76C397.515 43.368 397.455 43.012 397.335 42.692C397.215 42.368 397.029 42.112 396.777 41.924C396.525 41.732 396.205 41.636 395.817 41.636C395.449 41.636 395.149 41.726 394.917 41.906C394.685 42.082 394.513 42.33 394.401 42.65C394.293 42.966 394.239 43.336 394.239 43.76C394.239 44.18 394.293 44.55 394.401 44.87C394.513 45.19 394.687 45.44 394.923 45.62C395.163 45.796 395.477 45.884 395.865 45.884ZM400.367 47V40.52H401.645V42.098L401.489 41.894C401.569 41.678 401.675 41.482 401.807 41.306C401.943 41.126 402.105 40.978 402.293 40.862C402.453 40.754 402.629 40.67 402.821 40.61C403.017 40.546 403.217 40.508 403.421 40.496C403.625 40.48 403.823 40.488 404.015 40.52V41.87C403.823 41.814 403.601 41.796 403.349 41.816C403.101 41.836 402.877 41.906 402.677 42.026C402.477 42.134 402.313 42.272 402.185 42.44C402.061 42.608 401.969 42.8 401.909 43.016C401.849 43.228 401.819 43.458 401.819 43.706V47H400.367ZM407.905 47.18C407.257 47.18 406.691 47.034 406.207 46.742C405.723 46.45 405.347 46.048 405.079 45.536C404.815 45.02 404.683 44.428 404.683 43.76C404.683 43.08 404.819 42.484 405.091 41.972C405.363 41.46 405.741 41.06 406.225 40.772C406.709 40.484 407.269 40.34 407.905 40.34C408.557 40.34 409.125 40.486 409.609 40.778C410.093 41.07 410.469 41.474 410.737 41.99C411.005 42.502 411.139 43.092 411.139 43.76C411.139 44.432 411.003 45.026 410.731 45.542C410.463 46.054 410.087 46.456 409.603 46.748C409.119 47.036 408.553 47.18 407.905 47.18ZM407.905 45.824C408.481 45.824 408.909 45.632 409.189 45.248C409.469 44.864 409.609 44.368 409.609 43.76C409.609 43.132 409.467 42.632 409.183 42.26C408.899 41.884 408.473 41.696 407.905 41.696C407.517 41.696 407.197 41.784 406.945 41.96C406.697 42.132 406.513 42.374 406.393 42.686C406.273 42.994 406.213 43.352 406.213 43.76C406.213 44.388 406.355 44.89 406.639 45.266C406.927 45.638 407.349 45.824 407.905 45.824ZM415.575 47.18C414.943 47.18 414.413 47.03 413.985 46.73C413.557 46.43 413.235 46.022 413.019 45.506C412.803 44.986 412.695 44.404 412.695 43.76C412.695 43.108 412.803 42.524 413.019 42.008C413.235 41.492 413.551 41.086 413.967 40.79C414.387 40.49 414.905 40.34 415.521 40.34C416.133 40.34 416.663 40.49 417.111 40.79C417.563 41.086 417.913 41.492 418.161 42.008C418.409 42.52 418.533 43.104 418.533 43.76C418.533 44.408 418.411 44.99 418.167 45.506C417.923 46.022 417.579 46.43 417.135 46.73C416.691 47.03 416.171 47.18 415.575 47.18ZM412.449 47V38.36H413.907V42.452H413.727V47H412.449ZM415.353 45.884C415.729 45.884 416.039 45.79 416.283 45.602C416.527 45.414 416.707 45.16 416.823 44.84C416.943 44.516 417.003 44.156 417.003 43.76C417.003 43.368 416.943 43.012 416.823 42.692C416.703 42.368 416.517 42.112 416.265 41.924C416.013 41.732 415.693 41.636 415.305 41.636C414.937 41.636 414.637 41.726 414.405 41.906C414.173 42.082 414.001 42.33 413.889 42.65C413.781 42.966 413.727 43.336 413.727 43.76C413.727 44.18 413.781 44.55 413.889 44.87C414.001 45.19 414.175 45.44 414.411 45.62C414.651 45.796 414.965 45.884 415.353 45.884ZM419.976 47V38.18H421.422V47H419.976ZM426.165 47.18C425.509 47.18 424.933 47.038 424.437 46.754C423.941 46.47 423.553 46.076 423.273 45.572C422.997 45.068 422.859 44.488 422.859 43.832C422.859 43.124 422.995 42.51 423.267 41.99C423.539 41.466 423.917 41.06 424.401 40.772C424.885 40.484 425.445 40.34 426.081 40.34C426.753 40.34 427.323 40.498 427.791 40.814C428.263 41.126 428.613 41.568 428.841 42.14C429.069 42.712 429.155 43.386 429.099 44.162H427.665V43.634C427.661 42.93 427.537 42.416 427.293 42.092C427.049 41.768 426.665 41.606 426.141 41.606C425.549 41.606 425.109 41.79 424.821 42.158C424.533 42.522 424.389 43.056 424.389 43.76C424.389 44.416 424.533 44.924 424.821 45.284C425.109 45.644 425.529 45.824 426.081 45.824C426.437 45.824 426.743 45.746 426.999 45.59C427.259 45.43 427.459 45.2 427.599 44.9L429.027 45.332C428.779 45.916 428.395 46.37 427.875 46.694C427.359 47.018 426.789 47.18 426.165 47.18ZM423.933 44.162V43.07H428.391V44.162H423.933ZM438.044 47V43.064C438.044 42.62 437.934 42.274 437.714 42.026C437.494 41.774 437.196 41.648 436.82 41.648C436.588 41.648 436.38 41.702 436.196 41.81C436.012 41.914 435.866 42.07 435.758 42.278C435.65 42.482 435.596 42.726 435.596 43.01L434.954 42.632C434.95 42.184 435.05 41.79 435.254 41.45C435.462 41.106 435.742 40.838 436.094 40.646C436.446 40.454 436.838 40.358 437.27 40.358C437.986 40.358 438.534 40.574 438.914 41.006C439.298 41.434 439.49 41.998 439.49 42.698V47H438.044ZM430.25 47V40.52H431.528V42.53H431.708V47H430.25ZM434.156 47V43.082C434.156 42.63 434.046 42.278 433.826 42.026C433.606 41.774 433.306 41.648 432.926 41.648C432.558 41.648 432.262 41.774 432.038 42.026C431.818 42.278 431.708 42.606 431.708 43.01L431.06 42.578C431.06 42.158 431.164 41.78 431.372 41.444C431.58 41.108 431.86 40.844 432.212 40.652C432.568 40.456 432.966 40.358 433.406 40.358C433.89 40.358 434.294 40.462 434.618 40.67C434.946 40.874 435.19 41.154 435.35 41.51C435.514 41.862 435.596 42.26 435.596 42.704V47H434.156ZM442.867 47.18C442.399 47.18 442.003 47.092 441.679 46.916C441.355 46.736 441.109 46.498 440.941 46.202C440.777 45.906 440.695 45.58 440.695 45.224C440.695 44.912 440.747 44.632 440.851 44.384C440.955 44.132 441.115 43.916 441.331 43.736C441.547 43.552 441.827 43.402 442.171 43.286C442.431 43.202 442.735 43.126 443.083 43.058C443.435 42.99 443.815 42.928 444.223 42.872C444.635 42.812 445.065 42.748 445.513 42.68L444.997 42.974C445.001 42.526 444.901 42.196 444.697 41.984C444.493 41.772 444.149 41.666 443.665 41.666C443.373 41.666 443.091 41.734 442.819 41.87C442.547 42.006 442.357 42.24 442.249 42.572L440.929 42.158C441.089 41.61 441.393 41.17 441.841 40.838C442.293 40.506 442.901 40.34 443.665 40.34C444.241 40.34 444.747 40.434 445.183 40.622C445.623 40.81 445.949 41.118 446.161 41.546C446.277 41.774 446.347 42.008 446.371 42.248C446.395 42.484 446.407 42.742 446.407 43.022V47H445.141V45.596L445.351 45.824C445.059 46.292 444.717 46.636 444.325 46.856C443.937 47.072 443.451 47.18 442.867 47.18ZM443.155 46.028C443.483 46.028 443.763 45.97 443.995 45.854C444.227 45.738 444.411 45.596 444.547 45.428C444.687 45.26 444.781 45.102 444.829 44.954C444.905 44.77 444.947 44.56 444.955 44.324C444.967 44.084 444.973 43.89 444.973 43.742L445.417 43.874C444.981 43.942 444.607 44.002 444.295 44.054C443.983 44.106 443.715 44.156 443.491 44.204C443.267 44.248 443.069 44.298 442.897 44.354C442.729 44.414 442.587 44.484 442.471 44.564C442.355 44.644 442.265 44.736 442.201 44.84C442.141 44.944 442.111 45.066 442.111 45.206C442.111 45.366 442.151 45.508 442.231 45.632C442.311 45.752 442.427 45.848 442.579 45.92C442.735 45.992 442.927 46.028 443.155 46.028ZM448.209 47V45.518H449.691V47H448.209Z" fill="#F93131"/>
</g>
<defs>
<filter id="filter0_d_59_18" x="0.959961" y="3.52" width="454.348" height="44.96" filterUnits="userSpaceOnUse" color-interpolation-filters="sRGB">
<feFlood flood-opacity="0" result="BackgroundImageFix"/>
<feColorMatrix in="SourceAlpha" type="matrix" values="0 0 0 0 0 0 0 0 0 0 0 0 0 0 0 0 0 0 127 0" result="hardAlpha"/>
<feOffset dy="4"/>
<feGaussianBlur stdDeviation="5"/>
<feComposite in2="hardAlpha" operator="out"/>
<feColorMatrix type="matrix" values="0 0 0 0 0 0 0 0 0 0 0 0 0 0 0 0 0 0 0.25 0"/>
<feBlend mode="normal" in2="BackgroundImageFix" result="effect1_dropShadow_59_18"/>
<feBlend mode="normal" in="SourceGraphic" in2="effect1_dropShadow_59_18" result="shape"/>
</filter>
<filter id="filter1_d_59_18" x="119.24" y="31.37" width="340.451" height="32.69" filterUnits="userSpaceOnUse" color-interpolation-filters="sRGB">
<feFlood flood-opacity="0" result="BackgroundImageFix"/>
<feColorMatrix in="SourceAlpha" type="matrix" values="0 0 0 0 0 0 0 0 0 0 0 0 0 0 0 0 0 0 127 0" result="hardAlpha"/>
<feOffset dy="4"/>
<feGaussianBlur stdDeviation="5"/>
<feComposite in2="hardAlpha" operator="out"/>
<feColorMatrix type="matrix" values="0 0 0 0 0 0 0 0 0 0 0 0 0 0 0 0 0 0 0.25 0"/>
<feBlend mode="normal" in2="BackgroundImageFix" result="effect1_dropShadow_59_18"/>
<feBlend mode="normal" in="SourceGraphic" in2="effect1_dropShadow_59_18" result="shape"/>
</filter>
</defs>
</svg>
