<svg width="390" height="29" viewBox="0 0 390 29" fill="none" xmlns="http://www.w3.org/2000/svg">
<g filter="url(#filter0_d_12_393)">
<path d="M16.57 11.37C16.5767 12.2433 16.3267 12.9267 15.82 13.42C15.3133 13.9067 14.6167 14.15 13.73 14.15C13.2033 14.15 12.7167 14.03 12.27 13.79C11.83 13.55 11.48 13.21 11.22 12.77C10.96 12.33 10.83 11.8233 10.83 11.25V9.79C10.83 9.22333 10.9533 8.72 11.2 8.28C11.4533 7.84 11.7967 7.5 12.23 7.26C12.67 7.01333 13.16 6.89 13.7 6.89C14.5867 6.89 15.28 7.13333 15.78 7.62C16.2867 8.1 16.5433 8.78 16.55 9.66H14.75C14.7433 9.32 14.65 9.05667 14.47 8.87C14.2967 8.68333 14.04 8.59 13.7 8.59C13.3933 8.59 13.14 8.68667 12.94 8.88C12.74 9.07333 12.64 9.34667 12.64 9.7V11.33C12.64 11.6833 12.7433 11.96 12.95 12.16C13.1633 12.3533 13.4233 12.45 13.73 12.45C14.43 12.45 14.78 12.09 14.78 11.37H16.57ZM18.7923 7.04H23.9823V7.41H19.1623V10.33H23.0623V10.7H19.1623V14H18.7923V7.04ZM25.7947 13.99V7.03H26.1847L31.0447 11.76V7.03H31.4147V13.99H25.7947ZM41.5894 10.73V10.36H45.0294V10.73H41.5894ZM56.1741 14H55.8041V7.04H58.6041C59.0707 7.04 59.5007 7.14 59.8941 7.34C60.2941 7.54 60.6107 7.82333 60.8441 8.19C61.0774 8.55667 61.1941 8.98 61.1941 9.46C61.1941 9.92 61.0741 10.3433 60.8341 10.73C60.6007 11.1167 60.2807 11.4133 59.8741 11.62C59.5207 11.8 59.0974 11.89 58.6041 11.89H56.1741V14ZM56.1741 11.52H58.6041C59.0307 11.52 59.3807 11.4533 59.6541 11.32C60.0074 11.1533 60.2907 10.9033 60.5041 10.57C60.7174 10.2367 60.8241 9.86667 60.8241 9.46C60.8241 9.06 60.7174 8.69333 60.5041 8.36C60.2907 8.02667 60.0041 7.77667 59.6441 7.61C59.3707 7.47667 59.0241 7.41 58.6041 7.41H56.1741V11.52ZM65.3264 7.04H65.7164L68.5764 14H68.1764L67.2364 11.7H63.8064L62.8564 14H62.4664L65.3264 7.04ZM63.9564 11.34H67.0864L65.5164 7.52L63.9564 11.34ZM74.4288 7.27C74.8288 7.45667 75.1421 7.73333 75.3688 8.1C75.6021 8.46667 75.7188 8.87333 75.7188 9.32C75.7188 9.84 75.5588 10.3067 75.2388 10.72C74.9254 11.1267 74.5221 11.3967 74.0288 11.53L75.7988 14H75.3588L73.6488 11.6L73.3288 11.61H70.8188V14H70.4488V7.04H73.0988C73.3921 7.04 73.6421 7.06 73.8488 7.1C74.0621 7.13333 74.2554 7.19 74.4288 7.27ZM73.4288 11.24C73.7754 11.24 74.0954 11.1533 74.3888 10.98C74.6821 10.8067 74.9154 10.5733 75.0888 10.28C75.2621 9.98667 75.3488 9.66667 75.3488 9.32C75.3488 8.93333 75.2454 8.58333 75.0388 8.27C74.8388 7.95667 74.5588 7.72333 74.1988 7.57C73.9388 7.46333 73.5721 7.41 73.0988 7.41H70.8188V11.24H73.4288ZM80.1311 7.04H80.5211L83.3811 14H82.9811L82.0411 11.7H78.6111L77.6611 14H77.2711L80.1311 7.04ZM78.7611 11.34H81.8911L80.3211 7.52L78.7611 11.34ZM92.3158 7.04H92.6858V11.34C92.6858 11.78 92.7958 12.1867 93.0158 12.56C93.2358 12.9333 93.5324 13.23 93.9058 13.45C94.2791 13.67 94.6858 13.78 95.1258 13.78C95.5658 13.78 95.9724 13.67 96.3458 13.45C96.7191 13.23 97.0158 12.9333 97.2358 12.56C97.4558 12.1867 97.5658 11.78 97.5658 11.34V7.04H97.9358V11.34C97.9358 11.8467 97.8091 12.3167 97.5558 12.75C97.3024 13.1767 96.9591 13.5167 96.5258 13.77C96.0991 14.0233 95.6324 14.15 95.1258 14.15C94.6191 14.15 94.1491 14.0233 93.7158 13.77C93.2891 13.5167 92.9491 13.1767 92.6958 12.75C92.4424 12.3167 92.3158 11.8467 92.3158 11.34V7.04ZM100.088 14H99.7181V7.04H100.118L102.548 11.33L104.968 7.04H105.338V14H104.968V7.78L102.718 11.75H102.368L100.088 7.73V14ZM114.893 14H114.523V7.04H114.923L117.353 11.33L119.773 7.04H120.143V14H119.773V7.78L117.523 11.75H117.173L114.893 7.73V14ZM121.925 7.04H122.295V11.34C122.295 11.78 122.405 12.1867 122.625 12.56C122.845 12.9333 123.142 13.23 123.515 13.45C123.888 13.67 124.295 13.78 124.735 13.78C125.175 13.78 125.582 13.67 125.955 13.45C126.328 13.23 126.625 12.9333 126.845 12.56C127.065 12.1867 127.175 11.78 127.175 11.34V7.04H127.545V11.34C127.545 11.8467 127.418 12.3167 127.165 12.75C126.912 13.1767 126.568 13.5167 126.135 13.77C125.708 14.0233 125.242 14.15 124.735 14.15C124.228 14.15 123.758 14.0233 123.325 13.77C122.898 13.5167 122.558 13.1767 122.305 12.75C122.052 12.3167 121.925 11.8467 121.925 11.34V7.04ZM129.418 14V7.04H129.808L134.668 11.76V7.04H135.038V14H134.668V12.28L129.788 7.52V14H129.418ZM139.47 7.04C139.977 7.04 140.443 7.16667 140.87 7.42C141.303 7.67333 141.647 8.01667 141.9 8.45C142.153 8.87667 142.28 9.34333 142.28 9.85V11.19C142.28 11.6967 142.153 12.1667 141.9 12.6C141.647 13.0267 141.303 13.3667 140.87 13.62C140.443 13.8733 139.977 14 139.47 14H136.9V7.04H139.47ZM141.91 9.85C141.91 9.41 141.8 9.00333 141.58 8.63C141.36 8.25667 141.06 7.96 140.68 7.74C140.307 7.52 139.9 7.41 139.46 7.41H137.27V13.63H139.46C139.9 13.63 140.307 13.52 140.68 13.3C141.06 13.08 141.36 12.7833 141.58 12.41C141.8 12.0367 141.91 11.63 141.91 11.19V9.85ZM146.942 6.89C147.462 6.89 147.942 7.02 148.382 7.28C148.822 7.53333 149.169 7.88 149.422 8.32C149.682 8.76 149.812 9.24 149.812 9.76V11.28C149.812 11.8 149.682 12.28 149.422 12.72C149.169 13.16 148.822 13.51 148.382 13.77C147.942 14.0233 147.462 14.15 146.942 14.15C146.422 14.15 145.942 14.0233 145.502 13.77C145.062 13.51 144.712 13.16 144.452 12.72C144.199 12.28 144.072 11.8 144.072 11.28V9.76C144.072 9.24 144.199 8.76 144.452 8.32C144.712 7.88 145.062 7.53333 145.502 7.28C145.942 7.02 146.422 6.89 146.942 6.89ZM144.442 11.28C144.442 11.7333 144.552 12.1533 144.772 12.54C144.999 12.92 145.302 13.2233 145.682 13.45C146.069 13.67 146.489 13.78 146.942 13.78C147.396 13.78 147.812 13.67 148.192 13.45C148.579 13.2233 148.882 12.92 149.102 12.54C149.329 12.1533 149.442 11.7333 149.442 11.28V9.76C149.442 9.30667 149.329 8.89 149.102 8.51C148.882 8.12333 148.579 7.82 148.192 7.6C147.812 7.37333 147.396 7.26 146.942 7.26C146.489 7.26 146.069 7.37333 145.682 7.6C145.302 7.82 144.999 8.12333 144.772 8.51C144.552 8.89 144.442 9.30667 144.442 9.76V11.28ZM159.307 14H158.937V7.04H159.337L161.767 11.33L164.187 7.04H164.557V14H164.187V7.78L161.937 11.75H161.587L159.307 7.73V14ZM168.959 7.04H169.349L172.209 14H171.809L170.869 11.7H167.439L166.489 14H166.099L168.959 7.04ZM167.589 11.34H170.719L169.149 7.52L167.589 11.34ZM178.812 7.04V7.41H176.732V13.63H178.812V14H174.302V13.63H176.372V7.41H174.302V7.04H178.812ZM184.104 10.67C183.537 10.5567 183.074 10.4333 182.714 10.3C182.361 10.16 182.081 9.97333 181.874 9.74C181.674 9.5 181.574 9.19333 181.574 8.82C181.574 8.43333 181.674 8.09333 181.874 7.8C182.081 7.50667 182.367 7.28 182.734 7.12C183.107 6.96 183.537 6.88 184.024 6.88C184.491 6.88 184.917 6.98 185.304 7.18C185.697 7.37333 186.007 7.64667 186.234 8C186.461 8.35333 186.574 8.75667 186.574 9.21H186.204C186.204 8.81667 186.107 8.47 185.914 8.17C185.721 7.87 185.457 7.64 185.124 7.48C184.791 7.31333 184.421 7.23 184.014 7.23C183.654 7.23 183.317 7.28667 183.004 7.4C182.691 7.51333 182.434 7.68667 182.234 7.92C182.041 8.15333 181.944 8.44667 181.944 8.8C181.944 9.12 182.037 9.37667 182.224 9.57C182.411 9.75667 182.654 9.9 182.954 10C183.254 10.1 183.674 10.2067 184.214 10.32C184.761 10.4333 185.184 10.5433 185.484 10.65C185.791 10.75 186.047 10.92 186.254 11.16C186.467 11.4 186.574 11.7367 186.574 12.17C186.574 12.6033 186.457 12.97 186.224 13.27C185.997 13.5633 185.694 13.7833 185.314 13.93C184.934 14.0767 184.521 14.15 184.074 14.15C183.521 14.15 183.034 14.0467 182.614 13.84C182.194 13.6333 181.871 13.3433 181.644 12.97C181.424 12.59 181.314 12.1567 181.314 11.67H181.684C181.684 12.0967 181.777 12.47 181.964 12.79C182.157 13.11 182.434 13.36 182.794 13.54C183.154 13.7133 183.581 13.8 184.074 13.8C184.687 13.8 185.194 13.6533 185.594 13.36C186.001 13.0667 186.204 12.6667 186.204 12.16C186.204 11.8133 186.117 11.5467 185.944 11.36C185.771 11.1733 185.551 11.04 185.284 10.96C185.024 10.8733 184.631 10.7767 184.104 10.67ZM201.019 7.04V7.41H198.939V13.63H201.019V14H196.509V13.63H198.579V7.41H196.509V7.04H201.019ZM203.441 14V7.04H203.831L208.691 11.76V7.04H209.061V14H208.691V12.28L203.811 7.52V14H203.441ZM211.253 7.04H216.443V7.41H211.623V10.33H215.523V10.7H211.623V14H211.253V7.04ZM220.966 6.89C221.486 6.89 221.966 7.02 222.406 7.28C222.846 7.53333 223.192 7.88 223.446 8.32C223.706 8.76 223.836 9.24 223.836 9.76V11.28C223.836 11.8 223.706 12.28 223.446 12.72C223.192 13.16 222.846 13.51 222.406 13.77C221.966 14.0233 221.486 14.15 220.966 14.15C220.446 14.15 219.966 14.0233 219.526 13.77C219.086 13.51 218.736 13.16 218.476 12.72C218.222 12.28 218.096 11.8 218.096 11.28V9.76C218.096 9.24 218.222 8.76 218.476 8.32C218.736 7.88 219.086 7.53333 219.526 7.28C219.966 7.02 220.446 6.89 220.966 6.89ZM218.466 11.28C218.466 11.7333 218.576 12.1533 218.796 12.54C219.022 12.92 219.326 13.2233 219.706 13.45C220.092 13.67 220.512 13.78 220.966 13.78C221.419 13.78 221.836 13.67 222.216 13.45C222.602 13.2233 222.906 12.92 223.126 12.54C223.352 12.1533 223.466 11.7333 223.466 11.28V9.76C223.466 9.30667 223.352 8.89 223.126 8.51C222.906 8.12333 222.602 7.82 222.216 7.6C221.836 7.37333 221.419 7.26 220.966 7.26C220.512 7.26 220.092 7.37333 219.706 7.6C219.326 7.82 219.022 8.12333 218.796 8.51C218.576 8.89 218.466 9.30667 218.466 9.76V11.28ZM229.878 7.27C230.278 7.45667 230.591 7.73333 230.818 8.1C231.051 8.46667 231.168 8.87333 231.168 9.32C231.168 9.84 231.008 10.3067 230.688 10.72C230.375 11.1267 229.971 11.3967 229.478 11.53L231.248 14H230.808L229.098 11.6L228.778 11.61H226.268V14H225.898V7.04H228.548C228.841 7.04 229.091 7.06 229.298 7.1C229.511 7.13333 229.705 7.19 229.878 7.27ZM228.878 11.24C229.225 11.24 229.545 11.1533 229.838 10.98C230.131 10.8067 230.365 10.5733 230.538 10.28C230.711 9.98667 230.798 9.66667 230.798 9.32C230.798 8.93333 230.695 8.58333 230.488 8.27C230.288 7.95667 230.008 7.72333 229.648 7.57C229.388 7.46333 229.021 7.41 228.548 7.41H226.268V11.24H228.878ZM233.33 14H232.96V7.04H233.36L235.79 11.33L238.21 7.04H238.58V14H238.21V7.78L235.96 11.75H235.61L233.33 7.73V14ZM242.983 7.04H243.373L246.233 14H245.833L244.893 11.7H241.463L240.513 14H240.123L242.983 7.04ZM241.613 11.34H244.743L243.173 7.52L241.613 11.34ZM250.505 7.04C251.012 7.04 251.478 7.16667 251.905 7.42C252.338 7.67333 252.682 8.01667 252.935 8.45C253.188 8.87667 253.315 9.34333 253.315 9.85V11.19C253.315 11.6967 253.188 12.1667 252.935 12.6C252.682 13.0267 252.338 13.3667 251.905 13.62C251.478 13.8733 251.012 14 250.505 14H247.935V7.04H250.505ZM252.945 9.85C252.945 9.41 252.835 9.00333 252.615 8.63C252.395 8.25667 252.095 7.96 251.715 7.74C251.342 7.52 250.935 7.41 250.495 7.41H248.305V13.63H250.495C250.935 13.63 251.342 13.52 251.715 13.3C252.095 13.08 252.395 12.7833 252.615 12.41C252.835 12.0367 252.945 11.63 252.945 11.19V9.85ZM257.977 6.89C258.497 6.89 258.977 7.02 259.417 7.28C259.857 7.53333 260.204 7.88 260.457 8.32C260.717 8.76 260.847 9.24 260.847 9.76V11.28C260.847 11.8 260.717 12.28 260.457 12.72C260.204 13.16 259.857 13.51 259.417 13.77C258.977 14.0233 258.497 14.15 257.977 14.15C257.457 14.15 256.977 14.0233 256.537 13.77C256.097 13.51 255.747 13.16 255.487 12.72C255.234 12.28 255.107 11.8 255.107 11.28V9.76C255.107 9.24 255.234 8.76 255.487 8.32C255.747 7.88 256.097 7.53333 256.537 7.28C256.977 7.02 257.457 6.89 257.977 6.89ZM255.477 11.28C255.477 11.7333 255.587 12.1533 255.807 12.54C256.034 12.92 256.337 13.2233 256.717 13.45C257.104 13.67 257.524 13.78 257.977 13.78C258.431 13.78 258.847 13.67 259.227 13.45C259.614 13.2233 259.917 12.92 260.137 12.54C260.364 12.1533 260.477 11.7333 260.477 11.28V9.76C260.477 9.30667 260.364 8.89 260.137 8.51C259.917 8.12333 259.614 7.82 259.227 7.6C258.847 7.37333 258.431 7.26 257.977 7.26C257.524 7.26 257.104 7.37333 256.717 7.6C256.337 7.82 256.034 8.12333 255.807 8.51C255.587 8.89 255.477 9.30667 255.477 9.76V11.28ZM270.382 7.04H275.282V7.41H270.752V10.23H274.692V10.6H270.752V13.63H275.282V14H270.382V7.04ZM287.737 10.67C287.17 10.5567 286.707 10.4333 286.347 10.3C285.993 10.16 285.713 9.97333 285.507 9.74C285.307 9.5 285.207 9.19333 285.207 8.82C285.207 8.43333 285.307 8.09333 285.507 7.8C285.713 7.50667 286 7.28 286.367 7.12C286.74 6.96 287.17 6.88 287.657 6.88C288.123 6.88 288.55 6.98 288.937 7.18C289.33 7.37333 289.64 7.64667 289.867 8C290.093 8.35333 290.207 8.75667 290.207 9.21H289.837C289.837 8.81667 289.74 8.47 289.547 8.17C289.353 7.87 289.09 7.64 288.757 7.48C288.423 7.31333 288.053 7.23 287.647 7.23C287.287 7.23 286.95 7.28667 286.637 7.4C286.323 7.51333 286.067 7.68667 285.867 7.92C285.673 8.15333 285.577 8.44667 285.577 8.8C285.577 9.12 285.67 9.37667 285.857 9.57C286.043 9.75667 286.287 9.9 286.587 10C286.887 10.1 287.307 10.2067 287.847 10.32C288.393 10.4333 288.817 10.5433 289.117 10.65C289.423 10.75 289.68 10.92 289.887 11.16C290.1 11.4 290.207 11.7367 290.207 12.17C290.207 12.6033 290.09 12.97 289.857 13.27C289.63 13.5633 289.327 13.7833 288.947 13.93C288.567 14.0767 288.153 14.15 287.707 14.15C287.153 14.15 286.667 14.0467 286.247 13.84C285.827 13.6333 285.503 13.3433 285.277 12.97C285.057 12.59 284.947 12.1567 284.947 11.67H285.317C285.317 12.0967 285.41 12.47 285.597 12.79C285.79 13.11 286.067 13.36 286.427 13.54C286.787 13.7133 287.213 13.8 287.707 13.8C288.32 13.8 288.827 13.6533 289.227 13.36C289.633 13.0667 289.837 12.6667 289.837 12.16C289.837 11.8133 289.75 11.5467 289.577 11.36C289.403 11.1733 289.183 11.04 288.917 10.96C288.657 10.8733 288.263 10.7767 287.737 10.67ZM292.589 7.04H297.489V7.41H292.959V10.23H296.899V10.6H292.959V13.63H297.489V14H292.589V7.04ZM299.951 14H299.581V7.04H299.981L302.411 11.33L304.831 7.04H305.201V14H304.831V7.78L302.581 11.75H302.231L299.951 7.73V14ZM319.956 7.04V7.41H315.166V9.64H319.006V11.4H315.166V14H314.796V7.04H319.956ZM327.878 14H321.318L324.598 6.89L327.878 14ZM321.898 13.63H327.298L324.598 7.77L321.898 13.63ZM332.101 9.94L335.001 14H329.401V7.04H335.001L332.101 9.94ZM331.841 10.2L329.771 12.27V13.63H334.291L331.841 10.2ZM336.903 7.04H341.973V8.8H338.723V9.68H341.423V11.35H338.723V12.24H341.973V14H336.903V7.04ZM351.498 13.99V7.03H351.888L356.748 11.76V7.03H357.118V13.99H351.498ZM359.11 7.04H364.18V8.8H360.93V9.68H363.63V11.35H360.93V12.24H364.18V14H359.11V7.04ZM368.823 9.42L368.183 7.04H372.313L370.443 14H370.053L369.013 10.13L367.973 14H367.583L365.713 7.04H366.093L367.773 13.31L368.823 9.42ZM371.833 7.41H368.663L369.203 9.42L370.253 13.31L371.833 7.41ZM376.465 14.18C375.498 14.18 374.752 13.9533 374.225 13.5C373.705 13.04 373.448 12.3533 373.455 11.44H375.085C375.078 11.82 375.192 12.11 375.425 12.31C375.658 12.51 375.985 12.61 376.405 12.61C376.752 12.61 377.025 12.5533 377.225 12.44C377.425 12.3267 377.525 12.1533 377.525 11.92C377.525 11.7267 377.422 11.5867 377.215 11.5C377.015 11.4133 376.815 11.3533 376.615 11.32C376.415 11.28 376.292 11.2567 376.245 11.25C375.732 11.15 375.288 11.03 374.915 10.89C374.542 10.7433 374.228 10.5233 373.975 10.23C373.722 9.93667 373.595 9.55 373.595 9.07C373.595 8.59 373.722 8.18333 373.975 7.85C374.228 7.51 374.565 7.25667 374.985 7.09C375.412 6.92333 375.875 6.84 376.375 6.84C376.982 6.84 377.505 6.95333 377.945 7.18C378.392 7.40667 378.742 7.75 378.995 8.21C379.122 8.43 379.198 8.64333 379.225 8.85C379.252 9.05 379.265 9.24667 379.265 9.44H377.635C377.635 9.08 377.538 8.81667 377.345 8.65C377.152 8.47667 376.852 8.39 376.445 8.39C376.118 8.39 375.865 8.44667 375.685 8.56C375.505 8.67333 375.415 8.82667 375.415 9.02C375.415 9.23333 375.535 9.39 375.775 9.49C376.015 9.59 376.318 9.68 376.685 9.76C377.285 9.88 377.752 9.99667 378.085 10.11C378.425 10.2167 378.718 10.41 378.965 10.69C379.212 10.97 379.335 11.3633 379.335 11.87C379.335 12.35 379.202 12.7633 378.935 13.11C378.668 13.4567 378.315 13.7233 377.875 13.91C377.442 14.09 376.972 14.18 376.465 14.18Z" fill="white"/>
</g>
<defs>
<filter id="filter0_d_12_393" x="0.830078" y="0.840027" width="388.505" height="27.34" filterUnits="userSpaceOnUse" color-interpolation-filters="sRGB">
<feFlood flood-opacity="0" result="BackgroundImageFix"/>
<feColorMatrix in="SourceAlpha" type="matrix" values="0 0 0 0 0 0 0 0 0 0 0 0 0 0 0 0 0 0 127 0" result="hardAlpha"/>
<feOffset dy="4"/>
<feGaussianBlur stdDeviation="5"/>
<feComposite in2="hardAlpha" operator="out"/>
<feColorMatrix type="matrix" values="0 0 0 0 0 0 0 0 0 0 0 0 0 0 0 0 0 0 0.25 0"/>
<feBlend mode="normal" in2="BackgroundImageFix" result="effect1_dropShadow_12_393"/>
<feBlend mode="normal" in="SourceGraphic" in2="effect1_dropShadow_12_393" result="shape"/>
</filter>
</defs>
</svg>
